<svg width="2808" height="1679" viewBox="0 0 2808 1679" fill="none" xmlns="http://www.w3.org/2000/svg">
<path d="M997.08 114.06H615.58C595.549 114.06 579.31 130.299 579.31 150.33V640.91C579.31 660.941 595.549 677.18 615.58 677.18H997.08C1017.11 677.18 1033.35 660.941 1033.35 640.91V150.33C1033.35 130.299 1017.11 114.06 997.08 114.06Z" fill="#EFAF00" stroke="black" stroke-width="6" stroke-linecap="round" stroke-linejoin="round"/>
<path d="M891.49 114.06H847.36V677.7H891.49V114.06Z" fill="#1C0E0C"/>
<path d="M2235.26 940.29H2616.76C2636.79 940.29 2653.03 924.051 2653.03 904.02V532.63C2653.03 512.599 2636.79 496.36 2616.76 496.36L2235.26 496.36C2215.23 496.36 2198.99 512.599 2198.99 532.63V904.02C2198.99 924.051 2215.23 940.29 2235.26 940.29Z" fill="#C5DCDD" stroke="black" stroke-width="6" stroke-linecap="round" stroke-linejoin="round"/>
<path d="M2340.85 940.7H2384.98V496.36H2340.85V940.7Z" fill="#1C0E0C"/>
<path d="M2601.07 1347.18C2644.17 1372.92 2811.93 885.54 2803.97 855.55C2804 855.55 2524.94 1301.71 2601.07 1347.18Z" fill="#F4F1ED" stroke="white" stroke-width="6" stroke-linecap="round" stroke-linejoin="round"/>
<path d="M2567.54 1487.48C2567.54 1487.48 2615.25 1168.15 2801.74 863.97" stroke="white" stroke-width="6" stroke-linecap="round" stroke-linejoin="round"/>
<path d="M2747.55 1236.42C2747.55 1236.42 2657.92 1471.12 2606.72 1445.51C2556.46 1420.37 2747.55 1236.42 2747.55 1236.42Z" fill="#F4F1ED" stroke="white" stroke-width="6" stroke-linecap="round" stroke-linejoin="round"/>
<path d="M2579.9 1487.48C2579.9 1487.48 2691.12 1312.22 2747.57 1237.23" stroke="white" stroke-width="6" stroke-linecap="round" stroke-linejoin="round"/>
<path d="M2617.7 689.32C2617.7 689.32 2632.7 1218.9 2567.54 1218.9C2491.16 1218.9 2617.7 689.32 2617.7 689.32Z" fill="#F4F1ED" stroke="white" stroke-width="6" stroke-linecap="round" stroke-linejoin="round"/>
<path d="M2555.46 1487.48C2555.46 1487.48 2561.92 1017.05 2617.7 692.93" stroke="white" stroke-width="6" stroke-linecap="round" stroke-linejoin="round"/>
<path d="M2397.09 978.82C2397.09 978.82 2436.25 1346.88 2501.44 1335.55C2567.54 1324.06 2397.09 978.82 2397.09 978.82Z" fill="#F4F1ED" stroke="white" stroke-width="6" stroke-linecap="round" stroke-linejoin="round"/>
<path d="M2399.03 982.62L2546.07 1489.43" stroke="white" stroke-width="6" stroke-linecap="round" stroke-linejoin="round"/>
<path d="M2561.92 1658.24C2538.08 1658.24 2515.23 1648.77 2498.37 1631.91C2481.52 1615.06 2472.05 1592.2 2472.05 1568.36V1544.62C2472.05 1539.09 2473.28 1533.62 2475.64 1528.62C2478 1523.62 2481.44 1519.2 2485.71 1515.68L2509.58 1496.02C2516.29 1490.5 2524.72 1487.48 2533.41 1487.48H2590.41C2599.1 1487.48 2607.52 1490.5 2614.24 1496.02L2638.11 1515.68C2642.38 1519.2 2645.82 1523.62 2648.18 1528.62C2650.54 1533.62 2651.77 1539.09 2651.77 1544.62V1568.36C2651.77 1592.19 2642.3 1615.05 2625.46 1631.9C2608.61 1648.76 2585.75 1658.23 2561.92 1658.24V1658.24Z" fill="#F4F1ED" stroke="white" stroke-width="6" stroke-linecap="round" stroke-linejoin="round"/>
<path d="M2577.7 1031.34L2615.34 996.6" stroke="white" stroke-width="6" stroke-linecap="round" stroke-linejoin="round"/>
<path d="M2576.85 1049.12L2614.49 1014.37" stroke="white" stroke-width="6" stroke-linecap="round" stroke-linejoin="round"/>
<path d="M2576.85 882.02L2588.41 913.43" stroke="white" stroke-width="6" stroke-linecap="round" stroke-linejoin="round"/>
<path d="M2653.12 1176.62H2701.29" stroke="white" stroke-width="6" stroke-linecap="round" stroke-linejoin="round"/>
<path d="M2656.51 1164.77H2704.68" stroke="white" stroke-width="6" stroke-linecap="round" stroke-linejoin="round"/>
<path d="M2730.37 993.62H2768.87" stroke="white" stroke-width="6" stroke-linecap="round" stroke-linejoin="round"/>
<path d="M2440.41 1230.06L2477 1251.38" stroke="white" stroke-width="6" stroke-linecap="round" stroke-linejoin="round"/>
<path d="M2443.79 1246.15L2481.24 1268.31" stroke="white" stroke-width="6" stroke-linecap="round" stroke-linejoin="round"/>
<path d="M2633.65 1404.11H2666.71" stroke="white" stroke-width="6" stroke-linecap="round" stroke-linejoin="round"/>
<path d="M2301.98 3.04004H927.19C906.689 3.04004 890.07 19.6592 890.07 40.16V997.98C890.07 1018.48 906.689 1035.1 927.19 1035.1H2301.98C2322.48 1035.1 2339.1 1018.48 2339.1 997.98V40.16C2339.1 19.6592 2322.48 3.04004 2301.98 3.04004Z" fill="#F4F1ED" stroke="#070707" stroke-width="6" stroke-linecap="round" stroke-linejoin="round"/>
<path d="M890.07 88.9299H2339.1" stroke="#070707" stroke-width="6" stroke-linecap="round" stroke-linejoin="round"/>
<path d="M1105.76 38.4102H1098.42C1092.63 38.4102 1087.93 43.1067 1087.93 48.9001V56.2401C1087.93 62.0336 1092.63 66.7302 1098.42 66.7302H1105.76C1111.55 66.7302 1116.25 62.0336 1116.25 56.2401V48.9001C1116.25 43.1067 1111.55 38.4102 1105.76 38.4102Z" fill="#FFEFF0"/>
<path d="M1057.45 38.4102H1050.11C1044.32 38.4102 1039.62 43.1067 1039.62 48.9001V56.2401C1039.62 62.0336 1044.32 66.7302 1050.11 66.7302H1057.45C1063.24 66.7302 1067.94 62.0336 1067.94 56.2401V48.9001C1067.94 43.1067 1063.24 38.4102 1057.45 38.4102Z" fill="#FFEFF0"/>
<path d="M1009.13 38.4102H1001.79C995.997 38.4102 991.3 43.1067 991.3 48.9001V56.2401C991.3 62.0336 995.997 66.7302 1001.79 66.7302H1009.13C1014.92 66.7302 1019.62 62.0336 1019.62 56.2401V48.9001C1019.62 43.1067 1014.92 38.4102 1009.13 38.4102Z" fill="#FFEFF0"/>
<path d="M1099.92 33.22H1092.58C1086.79 33.22 1082.09 37.9165 1082.09 43.71V51.05C1082.09 56.8434 1086.79 61.54 1092.58 61.54H1099.92C1105.71 61.54 1110.41 56.8434 1110.41 51.05V43.71C1110.41 37.9165 1105.71 33.22 1099.92 33.22Z" fill="#C5DCDD" stroke="black" stroke-width="6" stroke-linecap="round" stroke-linejoin="round"/>
<path d="M1051.6 33.22H1044.26C1038.47 33.22 1033.77 37.9165 1033.77 43.71V51.05C1033.77 56.8434 1038.47 61.54 1044.26 61.54H1051.6C1057.39 61.54 1062.09 56.8434 1062.09 51.05V43.71C1062.09 37.9165 1057.39 33.22 1051.6 33.22Z" fill="#EFAF00" stroke="black" stroke-width="6" stroke-linecap="round" stroke-linejoin="round"/>
<path d="M1003.29 33.22H995.95C990.156 33.22 985.46 37.9165 985.46 43.71V51.05C985.46 56.8434 990.156 61.54 995.95 61.54H1003.29C1009.08 61.54 1013.78 56.8434 1013.78 51.05V43.71C1013.78 37.9165 1009.08 33.22 1003.29 33.22Z" fill="#F46F40" stroke="black" stroke-width="6" stroke-linecap="round" stroke-linejoin="round"/>
<path d="M2080.23 732.26H1166.08C1156.35 732.26 1148.47 740.144 1148.47 749.87V903.71C1148.47 913.436 1156.35 921.32 1166.08 921.32H2080.23C2089.96 921.32 2097.84 913.436 2097.84 903.71V749.87C2097.84 740.144 2089.96 732.26 2080.23 732.26Z" stroke="#070707" stroke-width="6" stroke-linecap="round" stroke-linejoin="round"/>
<path d="M1933.9 784.8H1824.32V869.44H1933.9V784.8Z" fill="#EFAF00" stroke="black" stroke-width="6" stroke-linecap="round" stroke-linejoin="round"/>
<path d="M1980.3 869.44H1933.9V805.95H1957.1L1980.3 839.57V869.44Z" fill="#F4F1ED" stroke="#070707" stroke-width="6" stroke-linecap="round" stroke-linejoin="round"/>
<path d="M1942.3 817.71H1954.14L1965.99 834.86H1942.3V817.71Z" fill="#F4F1ED" stroke="#070707" stroke-width="6" stroke-linecap="round" stroke-linejoin="round"/>
<path d="M1856.64 882.17C1863.21 882.17 1868.54 876.842 1868.54 870.27C1868.54 863.698 1863.21 858.37 1856.64 858.37C1850.07 858.37 1844.74 863.698 1844.74 870.27C1844.74 876.842 1850.07 882.17 1856.64 882.17Z" fill="#F4F1ED" stroke="#070707" stroke-width="6" stroke-linecap="round" stroke-linejoin="round"/>
<path d="M1956.94 882.17C1963.51 882.17 1968.84 876.842 1968.84 870.27C1968.84 863.698 1963.51 858.37 1956.94 858.37C1950.37 858.37 1945.04 863.698 1945.04 870.27C1945.04 876.842 1950.37 882.17 1956.94 882.17Z" fill="#F4F1ED" stroke="#070707" stroke-width="6" stroke-linecap="round" stroke-linejoin="round"/>
<path d="M1911.9 805.95H1876.95" stroke="#070707" stroke-width="6" stroke-linecap="round" stroke-linejoin="round"/>
<path d="M1899.29 820.41H1864.35" stroke="#070707" stroke-width="6" stroke-linecap="round" stroke-linejoin="round"/>
<path d="M1911.9 834.86H1876.95" stroke="#070707" stroke-width="6" stroke-linecap="round" stroke-linejoin="round"/>
<path d="M1722.9 882.01C1750.08 882.01 1772.12 859.973 1772.12 832.79C1772.12 805.607 1750.08 783.57 1722.9 783.57C1695.72 783.57 1673.68 805.607 1673.68 832.79C1673.68 859.973 1695.72 882.01 1722.9 882.01Z" fill="#F4F1ED" stroke="#070707" stroke-width="6" stroke-linecap="round" stroke-linejoin="round"/>
<path d="M1723.11 783.72V882.16" stroke="#070707" stroke-width="6" stroke-linecap="round" stroke-linejoin="round"/>
<path d="M1731.81 784C1731.81 784 1764.62 822.07 1731.81 881.84Z" fill="#F4F1ED"/>
<path d="M1731.81 784C1731.81 784 1764.62 822.07 1731.81 881.84" stroke="#070707" stroke-width="6" stroke-linecap="round" stroke-linejoin="round"/>
<path d="M1714.4 784C1714.4 784 1681.59 822.07 1714.4 881.84" stroke="#070707" stroke-width="6" stroke-linecap="round" stroke-linejoin="round"/>
<path d="M1673.89 832.94H1772.32" stroke="#070707" stroke-width="6" stroke-linecap="round" stroke-linejoin="round"/>
<path d="M1692.45 871.45C1692.45 871.45 1722.23 853.55 1753.1 871.45" stroke="#070707" stroke-width="6" stroke-linecap="round" stroke-linejoin="round"/>
<path d="M1692.45 794.66C1692.45 794.66 1722.23 812.56 1753.1 794.66" stroke="#070707" stroke-width="6" stroke-linecap="round" stroke-linejoin="round"/>
<path d="M1580.34 856.98C1600.27 856.98 1616.42 841.623 1616.42 822.68C1616.42 803.737 1600.27 788.38 1580.34 788.38C1560.41 788.38 1544.26 803.737 1544.26 822.68C1544.26 841.623 1560.41 856.98 1580.34 856.98Z" fill="#FFEFF0"/>
<path d="M1573.53 854.25C1594.04 854.25 1610.67 838.446 1610.67 818.95C1610.67 799.454 1594.04 783.65 1573.53 783.65C1553.02 783.65 1536.39 799.454 1536.39 818.95C1536.39 838.446 1553.02 854.25 1573.53 854.25Z" fill="#EFAF00" stroke="black" stroke-width="6" stroke-linecap="round" stroke-linejoin="round"/>
<path d="M1592.1 801.3C1594.53 803.555 1596.46 806.286 1597.79 809.323C1599.11 812.36 1599.79 815.637 1599.79 818.95C1599.79 822.263 1599.11 825.54 1597.79 828.577C1596.46 831.614 1594.53 834.345 1592.1 836.6" stroke="#070707" stroke-width="6" stroke-linecap="round" stroke-linejoin="round"/>
<path d="M1599.75 856.28L1622.75 880.47C1623.74 881.485 1625.07 882.088 1626.49 882.157C1627.9 882.226 1629.29 881.755 1630.37 880.84V880.84C1630.89 880.401 1631.31 879.86 1631.62 879.25C1631.92 878.641 1632.1 877.976 1632.14 877.296C1632.17 876.617 1632.07 875.936 1631.84 875.297C1631.6 874.658 1631.24 874.074 1630.77 873.58L1607.77 849.39C1606.78 848.375 1605.45 847.772 1604.03 847.703C1602.62 847.634 1601.23 848.105 1600.15 849.02V849.02C1599.63 849.459 1599.21 850 1598.9 850.61C1598.6 851.219 1598.42 851.884 1598.39 852.564C1598.35 853.243 1598.45 853.924 1598.68 854.563C1598.92 855.202 1599.28 855.786 1599.75 856.28V856.28Z" fill="#EFAF00" stroke="black" stroke-width="6" stroke-linecap="round" stroke-linejoin="round"/>
<path d="M1479.34 798.34H1409.64C1405.97 798.34 1403 801.313 1403 804.98V874.68C1403 878.347 1405.97 881.32 1409.64 881.32H1479.34C1483.01 881.32 1485.98 878.347 1485.98 874.68V804.98C1485.98 801.313 1483.01 798.34 1479.34 798.34Z" fill="#C5DCDD" stroke="black" stroke-width="6" stroke-linecap="round" stroke-linejoin="round"/>
<path d="M1460.05 798.34H1396.57C1392.9 798.34 1389.93 801.313 1389.93 804.98V874.68C1389.93 878.347 1392.9 881.32 1396.57 881.32H1460.05C1463.72 881.32 1466.69 878.347 1466.69 874.68V804.98C1466.69 801.313 1463.72 798.34 1460.05 798.34Z" fill="#C5DCDD" stroke="black" stroke-width="6" stroke-linecap="round" stroke-linejoin="round"/>
<path d="M1429.56 885.82V793.12" stroke="#070707" stroke-width="6" stroke-linecap="round" stroke-linejoin="round"/>
<path d="M1385.85 839.63H1489.65" stroke="#070707" stroke-width="6" stroke-linecap="round" stroke-linejoin="round"/>
<path d="M1442 771.71H1448.1C1451.4 771.71 1454.56 773.02 1456.89 775.351C1459.22 777.682 1460.53 780.843 1460.53 784.14V785.9C1460.53 789.197 1459.22 792.358 1456.89 794.689C1454.56 797.02 1451.4 798.33 1448.1 798.33H1429.57V784.13C1429.57 780.833 1430.88 777.672 1433.21 775.341C1435.54 773.01 1438.7 771.7 1442 771.7V771.71Z" stroke="#070707" stroke-width="6" stroke-linecap="round" stroke-linejoin="round"/>
<path d="M1429.42 798.34H1412.49C1409.89 798.34 1407.39 797.305 1405.55 795.464C1403.7 793.622 1402.67 791.124 1402.67 788.52V787.13C1402.67 784.526 1403.7 782.028 1405.55 780.186C1407.39 778.345 1409.89 777.31 1412.49 777.31H1419.6C1422.2 777.31 1424.7 778.345 1426.54 780.186C1428.39 782.028 1429.42 784.526 1429.42 787.13V798.34V798.34Z" stroke="#070707" stroke-width="6" stroke-linecap="round" stroke-linejoin="round"/>
<path d="M1445.04 815.33L1429.41 798.34L1419.86 807.9" stroke="#070707" stroke-width="6" stroke-linecap="round" stroke-linejoin="round"/>
<path d="M1285.22 770.93H1286.76C1289.64 770.93 1292.41 772.075 1294.45 774.114C1296.48 776.152 1297.63 778.917 1297.63 781.8V796.64H1274.35V781.8C1274.35 778.917 1275.5 776.152 1277.53 774.114C1279.57 772.075 1282.34 770.93 1285.22 770.93V770.93Z" stroke="#070707" stroke-width="6" stroke-linecap="round" stroke-linejoin="round"/>
<path d="M1277 770.93H1278.54C1281.42 770.93 1284.19 772.075 1286.23 774.114C1288.26 776.152 1289.41 778.917 1289.41 781.8V796.64H1266.13V781.8C1266.13 778.917 1267.28 776.152 1269.31 774.114C1271.35 772.075 1274.12 770.93 1277 770.93V770.93Z" stroke="#070707" stroke-width="6" stroke-linecap="round" stroke-linejoin="round"/>
<path d="M1321.69 882.16H1296.55L1307.03 796.6H1311.21L1321.69 882.16Z" fill="#1C0E0C"/>
<path d="M1307.03 796.6L1296.55 882.16H1236.85L1247.32 796.6H1307.03Z" fill="#EFAF00" stroke="black" stroke-width="6" stroke-linecap="round" stroke-linejoin="round"/>
<path d="M1790.6 383.89H1588.7C1578.97 383.89 1571.09 391.774 1571.09 401.5V603.4C1571.09 613.126 1578.97 621.01 1588.7 621.01H1790.6C1800.33 621.01 1808.21 613.126 1808.21 603.4V401.5C1808.21 391.774 1800.33 383.89 1790.6 383.89Z" fill="#1C0E0C"/>
<path d="M1780.74 373.91H1578.84C1569.11 373.91 1561.23 381.794 1561.23 391.52V593.42C1561.23 603.146 1569.11 611.03 1578.84 611.03H1780.74C1790.47 611.03 1798.35 603.146 1798.35 593.42V391.52C1798.35 381.794 1790.47 373.91 1780.74 373.91Z" fill="#F4F1ED" stroke="#070707" stroke-width="6" stroke-linecap="round" stroke-linejoin="round"/>
<path d="M1721.78 585.2H1654.3C1647.92 585.205 1641.62 583.77 1635.88 581.001C1630.13 578.232 1625.09 574.202 1621.12 569.21C1617.15 564.219 1614.35 558.395 1612.95 552.173C1611.54 545.952 1611.56 539.494 1613 533.28L1626.6 485.16C1627.07 483.126 1628.22 481.311 1629.85 480.011C1631.49 478.711 1633.51 478.002 1635.6 478H1740.42C1742.51 478.001 1744.54 478.709 1746.17 480.009C1747.8 481.309 1748.95 483.125 1749.42 485.16L1763.03 533.28C1764.46 539.489 1764.48 545.942 1763.08 552.158C1761.67 558.374 1758.88 564.193 1754.92 569.183C1750.96 574.173 1745.92 578.204 1740.18 580.977C1734.44 583.75 1728.15 585.194 1721.78 585.2Z" fill="#EFAF00"/>
<path d="M1713.63 577.87H1646.15C1639.77 577.87 1633.48 576.431 1627.73 573.66C1621.99 570.889 1616.95 566.857 1612.98 561.865C1609.01 556.874 1606.22 551.051 1604.81 544.831C1603.41 538.61 1603.42 532.153 1604.86 525.94L1618.47 477.83C1618.94 475.793 1620.08 473.975 1621.72 472.673C1623.35 471.371 1625.38 470.661 1627.47 470.66H1732.3C1734.39 470.663 1736.42 471.373 1738.05 472.675C1739.68 473.977 1740.83 475.794 1741.3 477.83L1754.9 525.94C1756.34 532.152 1756.36 538.608 1754.95 544.827C1753.55 551.047 1750.76 556.87 1746.79 561.861C1742.83 566.853 1737.78 570.885 1732.04 573.657C1726.3 576.429 1720.01 577.869 1713.63 577.87V577.87Z" stroke="#070707" stroke-width="6" stroke-linecap="round" stroke-linejoin="round"/>
<path d="M1720.74 462.14C1720.74 464.992 1720.53 467.841 1720.09 470.66H1639.69C1639.25 467.841 1639.04 464.992 1639.04 462.14C1639.04 435.79 1657.32 414.44 1679.88 414.44C1702.44 414.44 1720.74 435.79 1720.74 462.14Z" stroke="#070707" stroke-width="6" stroke-linecap="round" stroke-linejoin="round"/>
<path d="M1739.05 473.58C1737.67 504.98 1711.15 530.03 1679.88 530.03C1649.45 530.03 1622.11 505.03 1620.73 473.59C1621.59 472.666 1622.64 471.928 1623.8 471.424C1624.95 470.92 1626.21 470.66 1627.47 470.66H1732.29C1733.56 470.661 1734.81 470.92 1735.97 471.422C1737.13 471.924 1738.18 472.659 1739.05 473.58Z" stroke="#070707" stroke-width="6" stroke-linecap="round" stroke-linejoin="round"/>
<path d="M1683.96 520.82H1675.81V540.01H1683.96V520.82Z" stroke="#070707" stroke-width="6" stroke-linecap="round" stroke-linejoin="round"/>
<path d="M1751.36 403.03C1765.84 403.03 1777.57 391.295 1777.57 376.82C1777.57 362.345 1765.84 350.61 1751.36 350.61C1736.88 350.61 1725.15 362.345 1725.15 376.82C1725.15 391.295 1736.88 403.03 1751.36 403.03Z" fill="#C5DCDD" stroke="black" stroke-width="6" stroke-linecap="round" stroke-linejoin="round"/>
<path d="M1741.71 376.06L1750.31 388.21L1761.02 365.43" stroke="#070707" stroke-width="6" stroke-linecap="round" stroke-linejoin="round"/>
<path d="M2085.78 225.76H1575.73C1567.72 225.76 1561.23 232.252 1561.23 240.26V315.78C1561.23 323.788 1567.72 330.28 1575.73 330.28H2085.78C2093.79 330.28 2100.28 323.788 2100.28 315.78V240.26C2100.28 232.252 2093.79 225.76 2085.78 225.76Z" stroke="#070707" stroke-width="6" stroke-linecap="round" stroke-linejoin="round"/>
<path d="M1719.65 312.58H1645.48C1645.48 312.58 1625.19 280 1618.26 280C1614.26 280 1612.62 312.59 1612.62 312.59H1608C1608 312.59 1597.2 246.03 1609.17 242.22C1616.97 239.74 1638.09 246.34 1643.89 272.47C1648.79 294.47 1676.96 298.42 1680.09 283.9C1680.09 283.89 1718.33 295.16 1719.65 312.58Z" fill="#F4F1ED" stroke="#070707" stroke-width="6" stroke-linecap="round" stroke-linejoin="round"/>
<path d="M1909.92 296.6C1909.79 298.15 1907 305.53 1907 305.53L1764.42 300.7V292.7C1764.58 282.367 1766.94 272.187 1771.35 262.84C1775.06 255.11 1780.19 257.04 1780.19 257.04C1780.19 257.04 1794.13 270.67 1809.77 270.67C1811.13 270.657 1812.47 270.288 1813.65 269.601C1814.83 268.914 1815.81 267.931 1816.49 266.75C1817.41 265.309 1818.13 263.747 1818.62 262.11C1819.28 259.977 1819.74 257.788 1819.99 255.57C1820.11 254.634 1820.45 253.741 1820.99 252.965C1821.53 252.19 1822.24 251.555 1823.08 251.115C1823.91 250.674 1824.84 250.441 1825.79 250.435C1826.73 250.429 1827.66 250.65 1828.5 251.08C1834.64 254.24 1842.09 261.3 1862.05 272.08C1863.05 272.62 1864.05 273.18 1865.15 273.74C1889.43 286.53 1909.66 281.78 1909.92 296.6Z" fill="#F4F1ED" stroke="#070707" stroke-width="6" stroke-linecap="round" stroke-linejoin="round"/>
<path d="M1893.89 312.58C1898.02 312.58 1903.05 310.71 1905.76 307.69C1907.44 305.72 1908.65 303.392 1909.29 300.884C1909.93 298.377 1909.99 295.755 1909.47 293.22H1909.36C1908.78 296.236 1907.19 298.963 1904.85 300.948C1902.51 302.933 1899.56 304.056 1896.49 304.13L1772.88 300.5C1770.98 300.441 1769.15 299.794 1767.63 298.65C1766.12 297.505 1765 295.919 1764.42 294.11V302.41C1764.42 308.03 1768.5 312.58 1773.52 312.58H1893.89Z" fill="#EFAF00" stroke="black" stroke-width="6" stroke-linecap="round" stroke-linejoin="round"/>
<path d="M1867.48 275C1836.6 264.44 1821.15 259.66 1818.62 262.2C1819.28 260.067 1819.74 257.878 1819.99 255.66C1820.11 254.724 1820.45 253.831 1820.99 253.055C1821.53 252.28 1822.24 251.645 1823.08 251.205C1823.91 250.764 1824.84 250.531 1825.79 250.525C1826.73 250.519 1827.66 250.74 1828.5 251.17C1834.64 254.28 1844.91 263.66 1867.48 275Z" fill="#EFAF00" stroke="black" stroke-width="6" stroke-linecap="round" stroke-linejoin="round"/>
<path d="M1833.78 261.06L1839.38 252.54C1839.71 252.042 1840.13 251.615 1840.63 251.286C1841.13 250.958 1841.68 250.733 1842.27 250.626C1842.86 250.52 1843.46 250.533 1844.04 250.666C1844.62 250.799 1845.17 251.049 1845.65 251.4V251.4C1846.51 252.031 1847.11 252.952 1847.34 253.993C1847.58 255.034 1847.42 256.124 1846.91 257.06L1846.16 258.43" stroke="#070707" stroke-width="6" stroke-linecap="round" stroke-linejoin="round"/>
<path d="M1848.18 265.47L1852.28 259.34C1852.58 258.912 1852.96 258.549 1853.4 258.272C1853.84 257.995 1854.33 257.81 1854.84 257.729C1855.36 257.647 1855.88 257.671 1856.39 257.799C1856.89 257.926 1857.37 258.154 1857.78 258.47C1858.53 259.038 1859.04 259.86 1859.23 260.781C1859.41 261.702 1859.25 262.658 1858.78 263.47L1857.3 266.15" stroke="#070707" stroke-width="6" stroke-linecap="round" stroke-linejoin="round"/>
<path d="M1868.85 272C1870.49 269.77 1870.09 267.21 1868.45 266C1868.01 265.671 1867.5 265.436 1866.97 265.308C1866.43 265.18 1865.88 265.162 1865.34 265.256C1864.79 265.349 1864.28 265.552 1863.81 265.852C1863.35 266.152 1862.96 266.542 1862.65 267L1860.14 271.11" stroke="#070707" stroke-width="6" stroke-linecap="round" stroke-linejoin="round"/>
<path d="M2053.04 248.18C2065.42 248.18 2075.46 238.142 2075.46 225.76C2075.46 213.378 2065.42 203.34 2053.04 203.34C2040.66 203.34 2030.62 213.378 2030.62 225.76C2030.62 238.142 2040.66 248.18 2053.04 248.18Z" fill="#F46F40" stroke="black" stroke-width="6" stroke-linecap="round" stroke-linejoin="round"/>
<path d="M2045.67 233.41L2060.41 218.11" stroke="#070707" stroke-width="6" stroke-linecap="round" stroke-linejoin="round"/>
<path d="M2060.41 233.41L2045.67 218.11" stroke="#070707" stroke-width="6" stroke-linecap="round" stroke-linejoin="round"/>
<path d="M1952.82 276.83C1952.82 276.83 1936.82 312.58 1960.06 312.58H2067.94C2067.94 312.58 2072.28 295.07 2044.26 290.58C2040.36 289.95 2029.26 287.82 2029.26 287.82C2029.26 287.82 2032.72 301.82 2008.06 300.71C1983.4 299.6 1972.25 278.59 1952.82 276.83Z" fill="#F4F1ED" stroke="#070707" stroke-width="6" stroke-linecap="round" stroke-linejoin="round"/>
<path d="M1525.9 241.73H1181.85C1172.12 241.73 1164.24 249.614 1164.24 259.34V603.39C1164.24 613.116 1172.12 621 1181.85 621H1525.9C1535.63 621 1543.51 613.116 1543.51 603.39V259.34C1543.51 249.614 1535.63 241.73 1525.9 241.73Z" fill="#1C0E0C"/>
<path d="M1510.13 225.76H1166.08C1156.35 225.76 1148.47 233.644 1148.47 243.37V587.42C1148.47 597.146 1156.35 605.03 1166.08 605.03H1510.13C1519.86 605.03 1527.74 597.146 1527.74 587.42V243.37C1527.74 233.644 1519.86 225.76 1510.13 225.76Z" fill="#EFAF00" stroke="black" stroke-width="6" stroke-linecap="round" stroke-linejoin="round"/>
<path d="M1479.19 379L1428.84 421.65V535.92H1261.2V421.69L1210.86 379L1249.49 331C1261.2 320.81 1279.03 319.21 1291.98 319.21H1402.8C1428.8 319.21 1435.39 324.1 1442.14 329.42L1479.19 379Z" fill="#1C0E0C"/>
<path d="M1475 371.25L1423.74 414.66V531H1253V414.66L1201.75 371.25L1241.07 322.25C1253 311.87 1271.16 310.25 1284.34 310.25H1397.17C1423.64 310.25 1430.34 315.25 1437.17 320.64L1475 371.25Z" fill="#F4F1ED" stroke="#070707" stroke-width="6" stroke-linecap="round" stroke-linejoin="round"/>
<path d="M1253.02 414.66V373.52" stroke="#070707" stroke-width="6" stroke-linecap="round" stroke-linejoin="round"/>
<path d="M1423.66 415.05V373.91" stroke="#070707" stroke-width="6" stroke-linecap="round" stroke-linejoin="round"/>
<path d="M1338.36 348.17V530.97" stroke="#070707" stroke-width="6" stroke-linecap="round" stroke-linejoin="round"/>
<path d="M1391.37 310.29H1352.94C1352.58 310.287 1352.23 310.398 1351.93 310.606C1351.64 310.814 1351.42 311.109 1351.3 311.45L1338.36 348.17L1324.74 311.75C1324.58 311.321 1324.29 310.951 1323.91 310.69C1323.54 310.429 1323.09 310.289 1322.63 310.29H1284.75L1303.16 294.62C1307.28 291.11 1312.51 289.181 1317.92 289.18H1358.2C1363.61 289.181 1368.85 291.109 1372.97 294.62L1391.37 310.29Z" fill="#F4F1ED" stroke="#070707" stroke-width="6" stroke-linecap="round" stroke-linejoin="round"/>
<path d="M1311.08 294.73L1324.19 310.29L1309.19 331.7L1284.73 310.29L1303.89 294.12C1304.4 293.686 1304.99 293.358 1305.63 293.154C1306.27 292.95 1306.94 292.874 1307.61 292.931C1308.28 292.988 1308.93 293.176 1309.53 293.484C1310.12 293.793 1310.65 294.216 1311.08 294.73Z" fill="#F4F1ED" stroke="#070707" stroke-width="6" stroke-linecap="round" stroke-linejoin="round"/>
<path d="M1365.05 294.73L1351.93 310.29L1366.93 331.7L1391.39 310.29L1372.23 294.12C1371.72 293.688 1371.13 293.361 1370.49 293.158C1369.85 292.955 1369.18 292.879 1368.51 292.936C1367.85 292.992 1367.2 293.18 1366.6 293.488C1366.01 293.796 1365.48 294.218 1365.05 294.73V294.73Z" fill="#F4F1ED" stroke="#070707" stroke-width="6" stroke-linecap="round" stroke-linejoin="round"/>
<path d="M1364 376.82H1398V409.07C1398 410.749 1397.33 412.359 1396.15 413.546C1394.96 414.733 1393.35 415.4 1391.67 415.4H1370.33C1368.65 415.4 1367.04 414.733 1365.85 413.546C1364.67 412.359 1364 410.749 1364 409.07V376.82V376.82Z" fill="#F4F1ED" stroke="#070707" stroke-width="6" stroke-linecap="round" stroke-linejoin="round"/>
<path d="M1327.92 365.71C1330.2 365.71 1332.05 363.861 1332.05 361.58C1332.05 359.299 1330.2 357.45 1327.92 357.45C1325.64 357.45 1323.79 359.299 1323.79 361.58C1323.79 363.861 1325.64 365.71 1327.92 365.71Z" fill="#1C0E0C"/>
<path d="M1327.92 397.32C1330.2 397.32 1332.05 395.471 1332.05 393.19C1332.05 390.909 1330.2 389.06 1327.92 389.06C1325.64 389.06 1323.79 390.909 1323.79 393.19C1323.79 395.471 1325.64 397.32 1327.92 397.32Z" fill="#1C0E0C"/>
<path d="M1327.92 428.93C1330.2 428.93 1332.05 427.081 1332.05 424.8C1332.05 422.519 1330.2 420.67 1327.92 420.67C1325.64 420.67 1323.79 422.519 1323.79 424.8C1323.79 427.081 1325.64 428.93 1327.92 428.93Z" fill="#1C0E0C"/>
<path d="M1327.92 460.54C1330.2 460.54 1332.05 458.691 1332.05 456.41C1332.05 454.129 1330.2 452.28 1327.92 452.28C1325.64 452.28 1323.79 454.129 1323.79 456.41C1323.79 458.691 1325.64 460.54 1327.92 460.54Z" fill="#1C0E0C"/>
<path d="M1327.92 492.15C1330.2 492.15 1332.05 490.301 1332.05 488.02C1332.05 485.739 1330.2 483.89 1327.92 483.89C1325.64 483.89 1323.79 485.739 1323.79 488.02C1323.79 490.301 1325.64 492.15 1327.92 492.15Z" fill="#1C0E0C"/>
<path d="M1459.02 274.68C1481.72 274.68 1500.12 256.279 1500.12 233.58C1500.12 210.881 1481.72 192.48 1459.02 192.48C1436.32 192.48 1417.92 210.881 1417.92 233.58C1417.92 256.279 1436.32 274.68 1459.02 274.68Z" fill="#F4F1ED" stroke="#070707" stroke-width="6" stroke-linecap="round" stroke-linejoin="round"/>
<path d="M1448.43 215.2C1443.16 215.2 1439.61 219.28 1439.61 225.34C1439.61 231.79 1442.85 235.65 1448.27 235.65C1453.69 235.65 1457.01 231.65 1457.01 225.13C1457 219 1453.73 215.2 1448.43 215.2ZM1448.36 231.81C1444.74 231.81 1444.2 227.72 1444.2 225.28C1444.2 221.28 1445.68 219.04 1448.36 219.04C1451.77 219.04 1452.48 222.38 1452.48 225.19C1452.48 229.59 1451.09 231.81 1448.36 231.81V231.81Z" fill="#1C0E0C"/>
<path d="M1470.87 229.77C1465.69 229.77 1462.06 233.94 1462.06 239.9C1462.06 246.26 1465.38 250.21 1470.72 250.21C1476.06 250.21 1479.46 246.21 1479.46 239.69C1479.46 233.57 1476.17 229.77 1470.87 229.77ZM1470.81 246.37C1467.19 246.37 1466.65 242.29 1466.65 239.85C1466.65 235.85 1468.16 233.6 1470.81 233.6C1474.21 233.6 1474.92 236.95 1474.92 239.75C1474.92 244 1473.42 246.37 1470.81 246.37Z" fill="#1C0E0C"/>
<path d="M1473.33 215.66L1450.37 249.84H1445.79L1468.73 215.66H1473.33Z" fill="#1C0E0C"/>
<path d="M2087.27 383.89H1885.37C1875.64 383.89 1867.76 391.774 1867.76 401.5V603.4C1867.76 613.126 1875.64 621.01 1885.37 621.01H2087.27C2097 621.01 2104.88 613.126 2104.88 603.4V401.5C2104.88 391.774 2097 383.89 2087.27 383.89Z" fill="#1C0E0C"/>
<path d="M2077.41 373.91H1875.51C1865.78 373.91 1857.9 381.794 1857.9 391.52V593.42C1857.9 603.146 1865.78 611.03 1875.51 611.03H2077.41C2087.14 611.03 2095.02 603.146 2095.02 593.42V391.52C2095.02 381.794 2087.14 373.91 2077.41 373.91Z" fill="#C5DCDD" stroke="black" stroke-width="6" stroke-linecap="round" stroke-linejoin="round"/>
<path d="M2041.53 465.09H1933.41C1929.74 465.09 1926.77 468.063 1926.77 471.73V565.8C1926.77 569.467 1929.74 572.44 1933.41 572.44H2041.53C2045.2 572.44 2048.17 569.467 2048.17 565.8V471.73C2048.17 468.063 2045.2 465.09 2041.53 465.09Z" fill="white"/>
<path d="M2048.3 467.54V561.29C2048.3 562.753 2048.01 564.203 2047.45 565.555C2046.9 566.907 2046.07 568.136 2045.04 569.17C2044.01 570.205 2042.78 571.025 2041.42 571.585C2040.07 572.144 2038.62 572.431 2037.16 572.43H2010.16C2013.11 572.43 2015.95 571.256 2018.04 569.167C2020.13 567.078 2021.3 564.245 2021.3 561.29V467.54C2021.3 466.076 2021.01 464.626 2020.46 463.272C2019.9 461.919 2019.08 460.689 2018.04 459.653C2017.01 458.617 2015.78 457.794 2014.43 457.233C2013.07 456.671 2011.62 456.381 2010.16 456.38H2037.16C2038.62 456.381 2040.07 456.671 2041.43 457.233C2042.78 457.794 2044.01 458.617 2045.04 459.653C2046.08 460.689 2046.9 461.919 2047.46 463.272C2048.01 464.626 2048.3 466.076 2048.3 467.54Z" stroke="#070707" stroke-width="6" stroke-linecap="round" stroke-linejoin="round"/>
<path d="M2021.33 467.54V561.29C2021.33 564.245 2020.16 567.078 2018.07 569.167C2015.98 571.256 2013.14 572.43 2010.19 572.43H1925.19C1923.72 572.437 1922.27 572.153 1920.91 571.597C1919.55 571.04 1918.32 570.22 1917.28 569.185C1916.24 568.15 1915.42 566.92 1914.85 565.565C1914.29 564.21 1914 562.757 1914 561.29V467.54C1914 464.582 1915.17 461.745 1917.27 459.652C1919.36 457.56 1922.19 456.383 1925.15 456.38H2010.15C2011.62 456.376 2013.07 456.662 2014.43 457.221C2015.79 457.78 2017.02 458.602 2018.06 459.639C2019.1 460.676 2019.92 461.907 2020.48 463.263C2021.04 464.619 2021.33 466.073 2021.33 467.54Z" stroke="#070707" stroke-width="6" stroke-linecap="round" stroke-linejoin="round"/>
<path d="M1969.4 577.64V448" stroke="#070707" stroke-width="6" stroke-linecap="round" stroke-linejoin="round"/>
<path d="M1909.36 514.13H2052.35" stroke="#070707" stroke-width="6" stroke-linecap="round" stroke-linejoin="round"/>
<path d="M1986.78 419.15H1995.31C1999.92 419.15 2004.35 420.982 2007.61 424.244C2010.87 427.505 2012.7 431.928 2012.7 436.54V439C2012.7 443.612 2010.87 448.035 2007.61 451.297C2004.35 454.558 1999.92 456.39 1995.31 456.39H1969.4V436.53C1969.4 431.922 1971.23 427.502 1974.49 424.244C1977.75 420.985 1982.17 419.153 1986.78 419.15V419.15Z" stroke="#070707" stroke-width="6" stroke-linecap="round" stroke-linejoin="round"/>
<path d="M1969.2 456.37H1945.53C1941.89 456.37 1938.4 454.924 1935.82 452.349C1933.25 449.774 1931.8 446.282 1931.8 442.64V440.69C1931.8 437.049 1933.25 433.556 1935.82 430.982C1938.4 428.407 1941.89 426.96 1945.53 426.96H1955.47C1959.11 426.96 1962.6 428.407 1965.18 430.982C1967.75 433.556 1969.2 437.049 1969.2 440.69V456.37V456.37Z" stroke="#070707" stroke-width="6" stroke-linecap="round" stroke-linejoin="round"/>
<path d="M1991.05 480.15L1969.2 456.39L1955.83 469.76" stroke="#070707" stroke-width="6" stroke-linecap="round" stroke-linejoin="round"/>
<path d="M257.3 422.48C278.613 422.48 295.89 405.203 295.89 383.89C295.89 362.577 278.613 345.3 257.3 345.3C235.987 345.3 218.71 362.577 218.71 383.89C218.71 405.203 235.987 422.48 257.3 422.48Z" stroke="white" stroke-width="6" stroke-linecap="round" stroke-linejoin="round"/>
<path d="M353.41 230.34C360.164 230.34 365.64 224.864 365.64 218.11C365.64 211.356 360.164 205.88 353.41 205.88C346.655 205.88 341.18 211.356 341.18 218.11C341.18 224.864 346.655 230.34 353.41 230.34Z" stroke="white" stroke-width="6" stroke-linecap="round" stroke-linejoin="round"/>
<path d="M1677.22 1251.12H1681.92C1690.7 1251.12 1699.12 1254.61 1705.33 1260.81C1711.53 1267.02 1715.02 1275.44 1715.02 1284.22V1316.22H1644.13V1284.22C1644.13 1275.44 1647.62 1267.03 1653.82 1260.82C1660.03 1254.61 1668.44 1251.12 1677.22 1251.12V1251.12Z" stroke="white" stroke-width="6" stroke-linecap="round" stroke-linejoin="round"/>
<path d="M1701.13 1251.12H1705.83C1714.61 1251.12 1723.03 1254.61 1729.24 1260.81C1735.44 1267.02 1738.93 1275.44 1738.93 1284.22V1316.22H1668V1284.22C1668 1279.87 1668.86 1275.56 1670.52 1271.55C1672.19 1267.53 1674.63 1263.88 1677.71 1260.8C1680.78 1257.73 1684.43 1255.29 1688.45 1253.63C1692.47 1251.97 1696.78 1251.12 1701.13 1251.12Z" stroke="white" stroke-width="6" stroke-linecap="round" stroke-linejoin="round"/>
<path d="M1845.46 1658.18H1750.51L1790.76 1316.16H1805.21L1845.46 1658.18Z" fill="white"/>
<path d="M1790.76 1316.16L1750.51 1658.18H1529.86L1570.12 1316.16H1790.76Z" stroke="white" stroke-width="6" stroke-linecap="round" stroke-linejoin="round"/>
<path d="M1762.6 1420.58H1730.28L1734.4 1373.51C1734.85 1369.14 1736.88 1365.08 1740.12 1362.1C1743.36 1359.12 1747.57 1357.43 1751.97 1357.35V1357.35C1754.04 1357.31 1756.09 1357.72 1758 1358.53C1759.9 1359.35 1761.6 1360.57 1763 1362.1C1764.39 1363.62 1765.45 1365.43 1766.09 1367.4C1766.73 1369.37 1766.95 1371.45 1766.72 1373.51L1762.6 1420.58Z" fill="white"/>
<path d="M1759.76 1417.74H1727.44L1731.56 1370.67C1732.01 1366.29 1734.04 1362.23 1737.28 1359.25C1740.51 1356.27 1744.73 1354.58 1749.13 1354.5V1354.5C1751.2 1354.46 1753.25 1354.87 1755.16 1355.69C1757.06 1356.51 1758.76 1357.72 1760.16 1359.25C1761.55 1360.78 1762.61 1362.59 1763.25 1364.56C1763.89 1366.53 1764.11 1368.61 1763.88 1370.67L1759.76 1417.74Z" stroke="white" stroke-width="6" stroke-linecap="round" stroke-linejoin="round"/>
<path d="M1750.3 1369.97C1751.75 1368.58 1751.89 1366.37 1750.62 1365.04C1749.34 1363.71 1747.13 1363.75 1745.68 1365.14C1744.22 1366.53 1744.08 1368.74 1745.36 1370.07C1746.63 1371.4 1748.84 1371.36 1750.3 1369.97Z" stroke="white" stroke-width="6" stroke-linecap="round" stroke-linejoin="round"/>
<path d="M1748.1 1367.16L1752.7 1313.73C1752.85 1311.95 1753.67 1310.28 1754.99 1309.07C1756.31 1307.86 1758.04 1307.19 1759.83 1307.19V1307.19C1761.73 1307.19 1763.55 1307.94 1764.89 1309.29C1766.24 1310.63 1766.99 1312.45 1766.99 1314.35" stroke="white" stroke-width="6" stroke-linecap="round" stroke-linejoin="round"/>
<path d="M1746 1400.73C1746.82 1400.6 1747.59 1400.22 1748.19 1399.64C1748.71 1399.14 1749.03 1398.46 1749.09 1397.74C1749.14 1397.42 1749.12 1397.08 1749.02 1396.77C1748.93 1396.46 1748.76 1396.17 1748.53 1395.93C1747.95 1395.43 1747.27 1395.06 1746.53 1394.85L1744.87 1394.36C1743.87 1394.09 1742.89 1393.72 1741.96 1393.25C1741.2 1392.85 1740.58 1392.25 1740.15 1391.51C1739.69 1390.62 1739.52 1389.6 1739.66 1388.61C1739.75 1387.16 1740.39 1385.8 1741.46 1384.82C1742.69 1383.77 1744.24 1383.17 1745.86 1383.11H1747.56C1748.39 1383.17 1749.2 1383.37 1749.97 1383.7C1750.64 1384 1751.21 1384.46 1751.65 1385.04C1751.99 1385.47 1752.26 1385.94 1752.46 1386.45C1752.62 1386.87 1752.69 1387.33 1752.67 1387.78C1752.62 1388.23 1752.41 1388.64 1752.07 1388.95C1751.74 1389.25 1751.3 1389.42 1750.85 1389.43C1750.65 1389.44 1750.46 1389.41 1750.27 1389.35C1750.08 1389.28 1749.91 1389.18 1749.77 1389.05C1749.62 1388.92 1749.5 1388.76 1749.41 1388.58C1749.33 1388.4 1749.28 1388.21 1749.27 1388.01C1749.2 1387.49 1748.97 1387 1748.63 1386.61C1748.29 1386.21 1747.83 1385.92 1747.33 1385.78L1745.63 1385.72C1744.96 1385.89 1744.34 1386.2 1743.79 1386.61C1743.55 1386.82 1743.36 1387.07 1743.23 1387.36C1743.09 1387.65 1743.02 1387.95 1743.01 1388.27C1742.96 1388.55 1742.97 1388.85 1743.05 1389.13C1743.13 1389.4 1743.27 1389.66 1743.46 1389.88C1743.96 1390.32 1744.55 1390.66 1745.18 1390.88L1746.84 1391.37C1747.92 1391.68 1748.78 1391.95 1749.42 1392.2C1750.04 1392.45 1750.61 1392.82 1751.09 1393.29C1751.6 1393.78 1751.98 1394.39 1752.21 1395.06C1752.46 1395.78 1752.55 1396.55 1752.47 1397.31C1752.37 1398.33 1752.03 1399.31 1751.47 1400.17C1750.89 1401.08 1750.1 1401.83 1749.16 1402.35C1748.12 1402.93 1746.95 1403.28 1745.76 1403.35H1744.05C1743.12 1403.26 1742.21 1403.01 1741.37 1402.61C1740.67 1402.27 1740.05 1401.79 1739.53 1401.21C1739.09 1400.7 1738.75 1400.1 1738.53 1399.46C1738.34 1398.89 1738.26 1398.28 1738.31 1397.68C1738.35 1397.23 1738.57 1396.81 1738.91 1396.52C1739.26 1396.18 1739.73 1396 1740.21 1396C1740.57 1395.99 1740.92 1396.09 1741.21 1396.29C1741.47 1396.48 1741.65 1396.76 1741.71 1397.08C1741.84 1397.65 1742 1398.21 1742.2 1398.76C1742.35 1399.17 1742.6 1399.54 1742.92 1399.83C1743.31 1400.19 1743.79 1400.44 1744.3 1400.57L1746 1400.73Z" fill="white"/>
<path d="M1744.72 1405.37H1744.65C1744.56 1405.36 1744.47 1405.34 1744.38 1405.29C1744.3 1405.25 1744.23 1405.19 1744.17 1405.12C1744.11 1405.05 1744.06 1404.97 1744.04 1404.88C1744.01 1404.79 1744 1404.69 1744.01 1404.6L1746.01 1381.34C1746.03 1381.15 1746.12 1380.98 1746.26 1380.86C1746.41 1380.74 1746.59 1380.68 1746.78 1380.7C1746.97 1380.72 1747.14 1380.81 1747.26 1380.95C1747.38 1381.1 1747.44 1381.28 1747.43 1381.47L1745.43 1404.72C1745.41 1404.9 1745.33 1405.06 1745.2 1405.18C1745.07 1405.3 1744.9 1405.37 1744.72 1405.37V1405.37Z" fill="white"/>
<path d="M1597.12 1363.39H1600.53C1606.9 1363.39 1613 1365.92 1617.5 1370.42C1622 1374.92 1624.53 1381.02 1624.53 1387.39V1410.57H1573.1V1387.4C1573.1 1384.25 1573.72 1381.12 1574.93 1378.21C1576.13 1375.29 1577.9 1372.65 1580.13 1370.42C1582.36 1368.19 1585.01 1366.42 1587.93 1365.21C1590.84 1364.01 1593.97 1363.39 1597.12 1363.39V1363.39Z" stroke="white" stroke-width="6" stroke-linecap="round" stroke-linejoin="round"/>
<path d="M1614.47 1363.39H1617.88C1624.25 1363.39 1630.35 1365.92 1634.85 1370.42C1639.35 1374.92 1641.88 1381.02 1641.88 1387.39V1410.57H1590.44V1387.4C1590.44 1381.03 1592.97 1374.93 1597.47 1370.43C1601.97 1365.93 1608.07 1363.4 1614.44 1363.4L1614.47 1363.39Z" stroke="white" stroke-width="6" stroke-linecap="round" stroke-linejoin="round"/>
<path d="M1719.19 1658.75H1650.3L1679.51 1410.59H1689.99L1719.19 1658.75Z" fill="#F4F1ED" stroke="white" stroke-width="6" stroke-linecap="round" stroke-linejoin="round"/>
<path d="M1679.51 1410.59L1650.3 1658.75H1490.2L1519.41 1410.59H1679.51Z" fill="#F4F1ED" stroke="white" stroke-width="6" stroke-linecap="round" stroke-linejoin="round"/>
<path d="M580.82 854.89H297.58C285.259 854.89 275.27 864.878 275.27 877.2V1195.93C275.27 1208.25 285.259 1218.24 297.58 1218.24H580.82C593.142 1218.24 603.13 1208.25 603.13 1195.93V877.2C603.13 864.878 593.142 854.89 580.82 854.89Z" fill="#C5DCDD" stroke="white" stroke-width="6" stroke-linecap="round" stroke-linejoin="round"/>
<path d="M551 889.26C547.421 885.683 542.862 883.247 537.9 882.261C532.937 881.274 527.793 881.781 523.118 883.717C518.444 885.653 514.448 888.932 511.636 893.138C508.824 897.345 507.322 902.29 507.32 907.35V981.88H558.49V907.35C558.494 903.99 557.835 900.662 556.55 897.558C555.264 894.453 553.378 891.633 551 889.26V889.26ZM532.91 908.11C531.818 908.11 530.751 907.786 529.843 907.18C528.935 906.573 528.228 905.711 527.81 904.702C527.392 903.694 527.283 902.584 527.496 901.513C527.709 900.442 528.235 899.459 529.007 898.687C529.779 897.915 530.762 897.389 531.833 897.176C532.904 896.963 534.014 897.072 535.022 897.49C536.031 897.908 536.893 898.615 537.5 899.523C538.106 900.431 538.43 901.498 538.43 902.59C538.427 904.048 537.849 905.446 536.821 906.48C535.793 907.513 534.398 908.099 532.94 908.11H532.91Z" stroke="white" stroke-width="6" stroke-linecap="round" stroke-linejoin="round"/>
<path d="M547.56 884.5C543.983 880.918 539.424 878.478 534.459 877.489C529.495 876.499 524.349 877.005 519.672 878.942C514.995 880.879 510.998 884.16 508.187 888.369C505.376 892.579 503.877 897.528 503.88 902.59V977.12H555.06V902.59C555.065 899.229 554.404 895.9 553.117 892.796C551.83 889.691 549.941 886.872 547.56 884.5ZM529.47 903.35C528.376 903.352 527.306 903.029 526.395 902.423C525.484 901.816 524.774 900.953 524.354 899.943C523.934 898.933 523.823 897.821 524.035 896.747C524.247 895.674 524.773 894.688 525.546 893.913C526.319 893.139 527.304 892.611 528.377 892.397C529.45 892.183 530.563 892.292 531.574 892.71C532.585 893.128 533.449 893.837 534.057 894.747C534.665 895.656 534.99 896.726 534.99 897.82C534.99 899.285 534.409 900.69 533.374 901.727C532.339 902.764 530.935 903.347 529.47 903.35V903.35Z" fill="#F4F1ED" stroke="white" stroke-width="6" stroke-linecap="round" stroke-linejoin="round"/>
<path d="M529.47 895.74V851.29C529.47 847.898 530.817 844.645 533.216 842.246C535.615 839.848 538.868 838.5 542.26 838.5C543.94 838.499 545.605 838.829 547.157 839.471C548.71 840.113 550.122 841.055 551.31 842.243C552.499 843.43 553.442 844.841 554.085 846.393C554.729 847.946 555.06 849.61 555.06 851.29V852.57" stroke="white" stroke-width="6" stroke-linecap="round" stroke-linejoin="round"/>
<path d="M539.87 941.19C539.418 940.12 538.735 939.164 537.87 938.39C537.057 937.646 536.11 937.062 535.08 936.67C534.04 936.277 532.64 935.837 530.88 935.35H530.76V926.54H530.88C531.707 926.773 532.457 927.223 533.052 927.844C533.646 928.465 534.063 929.233 534.26 930.07C534.355 930.711 534.683 931.295 535.181 931.71C535.679 932.125 536.312 932.342 536.96 932.32C537.309 932.326 537.656 932.26 537.979 932.128C538.302 931.995 538.595 931.799 538.84 931.55C539.089 931.313 539.287 931.027 539.421 930.711C539.555 930.394 539.623 930.054 539.62 929.71C539.594 928.978 539.417 928.26 539.1 927.6C538.717 926.789 538.218 926.038 537.62 925.37C536.849 924.454 535.877 923.728 534.78 923.25C533.535 922.741 532.22 922.424 530.88 922.31H530.76V919.62C530.76 919.275 530.623 918.945 530.379 918.701C530.135 918.457 529.805 918.32 529.46 918.32C529.115 918.32 528.784 918.457 528.541 918.701C528.297 918.945 528.16 919.275 528.16 919.62V922.32C525.673 922.388 523.295 923.35 521.46 925.03C520.183 926.452 519.386 928.24 519.181 930.141C518.976 932.042 519.375 933.958 520.32 935.62C521.09 936.796 522.161 937.745 523.42 938.37C524.941 939.102 526.528 939.688 528.16 940.12V950C527.33 949.785 526.558 949.389 525.9 948.84C525.359 948.371 524.919 947.796 524.61 947.15C524.33 946.53 524 945.64 523.61 944.48C523.464 943.969 523.141 943.526 522.7 943.23C522.218 942.918 521.653 942.761 521.08 942.78C520.707 942.767 520.337 942.834 519.992 942.975C519.647 943.116 519.336 943.329 519.08 943.6C518.83 943.838 518.631 944.123 518.494 944.439C518.356 944.755 518.284 945.095 518.28 945.44C518.292 946.406 518.492 947.361 518.87 948.25C519.313 949.276 519.936 950.214 520.71 951.02C521.601 951.941 522.651 952.693 523.81 953.24C525.181 953.858 526.643 954.25 528.14 954.4V956.4C528.14 956.745 528.277 957.075 528.521 957.319C528.764 957.563 529.095 957.7 529.44 957.7C529.785 957.7 530.115 957.563 530.359 957.319C530.603 957.075 530.74 956.745 530.74 956.4V954.32H530.86C532.709 954.202 534.506 953.658 536.11 952.73C537.52 951.902 538.678 950.706 539.46 949.27C540.213 947.88 540.601 946.321 540.59 944.74C540.598 943.52 540.352 942.311 539.87 941.19ZM525.3 933C524.688 932.274 524.359 931.351 524.371 930.402C524.384 929.453 524.739 928.539 525.37 927.83C526.181 927.174 527.122 926.698 528.13 926.43V934.56C527.093 934.231 526.131 933.701 525.3 933ZM534.17 948.46C533.282 949.384 532.116 949.991 530.85 950.19H530.73V940.85H530.85C532.07 941.188 533.21 941.77 534.2 942.56C534.587 942.925 534.89 943.369 535.087 943.864C535.284 944.358 535.37 944.889 535.34 945.42C535.36 946.547 534.941 947.638 534.17 948.46Z" fill="white"/>
<path d="M244.8 977.39H200.66C200.66 977.39 158.26 939.84 139.73 917.69C137.2 914.641 134.884 911.42 132.8 908.05C130.85 904.88 129.778 901.249 129.693 897.528C129.609 893.808 130.514 890.132 132.317 886.876C134.119 883.621 136.755 880.903 139.953 879C143.152 877.098 146.799 876.08 150.52 876.05H151C195.8 876 244.83 957.2 244.8 977.39Z" fill="#1C0E0C"/>
<path d="M269.15 977.39H238.09C238.09 977.39 208.26 950.97 195.22 935.39C193.441 933.246 191.814 930.981 190.35 928.61C188.972 926.38 188.212 923.824 188.149 921.203C188.087 918.583 188.723 915.993 189.993 913.7C191.262 911.407 193.12 909.493 195.374 908.156C197.629 906.818 200.199 906.105 202.82 906.09H203.15C234.67 906.09 269.16 963.19 269.15 977.39Z" fill="#F4F1ED"/>
<path d="M176.82 833.64C251.12 832.86 276.96 939.03 275.35 977.39H244.8C244.8 957.2 195.8 876.04 151 876.04C135.11 876.04 125.74 890.2 130.53 903.04C130.53 903 99.7398 834.45 176.82 833.64Z" fill="#EFAF00" stroke="white" stroke-width="6" stroke-linecap="round" stroke-linejoin="round"/>
<path d="M404 962.33C409.24 949.79 402.19 935.33 389.14 931.4C328.63 913.15 266.76 977.4 266.76 977.4H251.62C251.62 977.4 283.37 883.81 376.96 897.72C397.45 900.76 424.35 920.49 404 962.33Z" fill="#EFAF00" stroke="white" stroke-width="6" stroke-linecap="round" stroke-linejoin="round"/>
<path d="M404 962.54C401.19 969.12 397.75 975.27 395.3 977.39H360.9C360.9 977.39 369.13 974.6 377.09 962.54C386.76 947.89 382.28 929.77 369.04 928.54C375.867 928.608 382.656 929.576 389.23 931.42C402.31 935.36 409.36 950 404 962.54Z" fill="#1C0E0C"/>
<path d="M417.24 974.23H192.42C165.154 974.23 143.05 996.334 143.05 1023.6V1287.18C143.05 1314.45 165.154 1336.55 192.42 1336.55H417.24C444.506 1336.55 466.61 1314.45 466.61 1287.18V1023.6C466.61 996.334 444.506 974.23 417.24 974.23Z" fill="#1C0E0C"/>
<path d="M356.76 974.23H141.34C114.074 974.23 91.97 996.334 91.97 1023.6V1287.18C91.97 1314.45 114.074 1336.55 141.34 1336.55H356.76C384.026 1336.55 406.13 1314.45 406.13 1287.18V1023.6C406.13 996.334 384.026 974.23 356.76 974.23Z" fill="#F4F1ED" stroke="white" stroke-width="6" stroke-linecap="round" stroke-linejoin="round"/>
<path d="M830.3 907.79H766.19C750.538 907.783 735.296 912.79 722.699 922.078C710.101 931.366 700.811 944.446 696.19 959.4L593.19 1292.61C586.822 1313.21 574.024 1331.22 556.673 1344.02C539.322 1356.82 518.329 1363.72 496.77 1363.72H140.24C126.02 1363.72 112.21 1368.48 101.016 1377.25C89.8222 1386.02 81.8911 1398.29 78.4898 1412.1L65.4898 1481.2C63.6207 1488.78 63.5015 1496.69 65.1413 1504.33C66.7811 1511.96 70.1369 1519.13 74.9546 1525.27C79.7722 1531.42 85.9255 1536.39 92.9483 1539.81C99.9712 1543.23 107.68 1545 115.49 1545H550.16" stroke="white" stroke-width="6" stroke-linecap="round" stroke-linejoin="round"/>
<path d="M497.09 1363.72H166.39C144.836 1363.71 123.849 1356.81 106.504 1344.01C89.1592 1331.22 76.3667 1313.2 69.9999 1292.61L3.90991 1026.13H675.61L593.61 1292.5C587.253 1313.13 574.449 1331.18 557.076 1344C539.704 1356.82 518.68 1363.73 497.09 1363.72Z" stroke="white" stroke-width="6" stroke-linecap="round" stroke-linejoin="round"/>
<path d="M277.28 1363.72L172.9 1026.13" stroke="white" stroke-width="6" stroke-linecap="round" stroke-linejoin="round"/>
<path d="M365.41 1363.72L469.79 1026.13" stroke="white" stroke-width="6" stroke-linecap="round" stroke-linejoin="round"/>
<path d="M626.79 1183.93H44.52" stroke="white" stroke-width="6" stroke-linecap="round" stroke-linejoin="round"/>
<path d="M501.28 1678.64C529.441 1678.64 552.27 1655.81 552.27 1627.65C552.27 1599.49 529.441 1576.66 501.28 1576.66C473.119 1576.66 450.29 1599.49 450.29 1627.65C450.29 1655.81 473.119 1678.64 501.28 1678.64Z" fill="#C5DCDD"/>
<path d="M155.09 1678.64C183.251 1678.64 206.08 1655.81 206.08 1627.65C206.08 1599.49 183.251 1576.66 155.09 1576.66C126.929 1576.66 104.1 1599.49 104.1 1627.65C104.1 1655.81 126.929 1678.64 155.09 1678.64Z" fill="#C5DCDD"/>
<path d="M490.69 1669.67C518.851 1669.67 541.68 1646.84 541.68 1618.68C541.68 1590.52 518.851 1567.69 490.69 1567.69C462.529 1567.69 439.7 1590.52 439.7 1618.68C439.7 1646.84 462.529 1669.67 490.69 1669.67Z" stroke="white" stroke-width="6" stroke-linecap="round" stroke-linejoin="round"/>
<path d="M144.49 1669.67C172.651 1669.67 195.48 1646.84 195.48 1618.68C195.48 1590.52 172.651 1567.69 144.49 1567.69C116.329 1567.69 93.5 1590.52 93.5 1618.68C93.5 1646.84 116.329 1669.67 144.49 1669.67Z" stroke="white" stroke-width="6" stroke-linecap="round" stroke-linejoin="round"/>
<path d="M542.41 1234.15H491.04C483.037 1234.15 476.55 1240.64 476.55 1248.64V1322.05C476.55 1330.05 483.037 1336.54 491.04 1336.54H542.41C550.413 1336.54 556.9 1330.05 556.9 1322.05V1248.64C556.9 1240.64 550.413 1234.15 542.41 1234.15Z" fill="#F46F40" stroke="white" stroke-width="6" stroke-linecap="round" stroke-linejoin="round"/>
<path d="M2198.99 752.13H2034.57V788.38H2198.99V752.13Z" fill="#1C0E0C"/>
<path d="M2177.37 1624.17C2183 1638.86 2187.68 1660.71 2167.96 1660.71H2061.33C2061.33 1660.71 2061.02 1644.46 2085.92 1642.29C2128.07 1638.62 2141.33 1605.21 2141.92 1589.4C2143.13 1504.22 2109.92 1244.31 2104.39 1194.04C2140.33 1192.93 2176.1 1188.67 2211.3 1181.31C2193.23 1242.5 2232.13 1292.7 2235.16 1354.22C2238.16 1415.57 2189.27 1551.56 2175.11 1598.08C2173.94 1606.38 2174.84 1617.54 2177.37 1624.17Z" fill="#FCBE9F" stroke="#070707" stroke-width="6" stroke-linecap="round" stroke-linejoin="round"/>
<path d="M2177.37 1624.17C2177.37 1624.17 2193.68 1660.71 2169.97 1660.71H2059.7C2059.7 1660.71 2055.27 1646.89 2083.9 1642.29C2087.9 1641.66 2099.28 1639.47 2099.28 1639.47C2099.28 1639.47 2095.74 1649.69 2120.95 1648.58C2146.16 1647.47 2157.51 1626 2177.37 1624.17Z" fill="#F46F40" stroke="black" stroke-width="6" stroke-linecap="round" stroke-linejoin="round"/>
<path d="M2208.22 1194.33C2174.97 1203.64 2140.91 1209.71 2106.49 1212.45V1212.45L2104.36 1194.04C2140.3 1192.93 2176.07 1188.67 2211.26 1181.31L2208.22 1194.33Z" fill="#1C0E0C"/>
<path d="M1890.7 1159C1926.17 1172.77 1963.06 1182.52 2000.7 1188.09L1968.1 1241.38C1968.1 1251.93 2014.52 1300.78 2027.29 1344.38C2042.71 1397.14 2028.1 1544.04 2032.97 1567.58C2036.02 1582.29 2020.73 1612.9 2005.78 1627.07C1996.78 1635.58 1985.36 1632.41 1985.36 1632.41C1985.36 1632.41 2009.53 1584.08 1998.07 1546.48C1955.83 1407.76 1873.07 1249.48 1873.07 1227.48C1873.07 1215.6 1879.16 1193.1 1888.22 1166.23L1890.7 1159Z" fill="#FCBE9F" stroke="#070707" stroke-width="6" stroke-linecap="round" stroke-linejoin="round"/>
<path d="M2031.3 1570.09C2037.54 1566.72 2058.89 1585.59 2057.8 1596.09L2006.17 1659.94H1953.25C1953.25 1659.94 1947.81 1637.94 1985.32 1632.52C2022.83 1627.1 2007.13 1583.17 2031.3 1570.09Z" fill="#F46F40" stroke="black" stroke-width="6" stroke-linecap="round" stroke-linejoin="round"/>
<path d="M1890.7 1159C1926.17 1172.77 1963.06 1182.52 2000.7 1188.09L1988.59 1208C1954.86 1200.86 1920.75 1186.07 1888.2 1166.36L1890.7 1159Z" fill="#1C0E0C"/>
<path d="M2252 1170.79C2252 1170.79 2070.25 1232.47 1883.59 1156.19C1883.59 1156.19 2019.94 852.65 2031.29 829.93C2042.64 807.21 2041.86 770.69 2041.86 770.69C2041.86 770.69 2036.16 712.29 2019.12 692.81C2002.08 673.33 1992.35 651.42 2001.27 623.81C2010.19 596.2 2020.72 541.81 2020.72 541.81L2058.08 529.63L2189.82 527.19C2189.82 527.19 2206.12 546.19 2202.61 581.9C2199.61 612.9 2160.71 700.22 2194.43 770.66C2209.84 795.81 2264.11 841.14 2270.67 920.42C2279.16 1022.72 2252 1170.79 2252 1170.79Z" fill="#F46F40" stroke="black" stroke-width="6" stroke-linecap="round" stroke-linejoin="round"/>
<path d="M2047.77 572C2047.06 544.22 2025.35 527.72 2003.4 555.18C1987.86 574.6 1947.78 643.12 1924.86 686.97C1902.3 652.76 1852.25 593.48 1824.41 567.39C1825.35 555.87 1819.79 524.01 1816.41 521.63C1812.68 519 1795.09 493.27 1795.09 493.27C1795.09 493.27 1788.61 496.75 1794.61 507.4C1801.61 519.76 1800.06 523.68 1800.06 523.68C1800.06 523.68 1792.2 524.97 1791.25 530.16C1790.3 535.35 1784.17 531.7 1781.36 539.58C1779.72 544.19 1775.97 545.98 1777.02 550.58C1778.02 554.89 1799.39 572.86 1810.4 575.97C1825.63 621.62 1872.98 726.13 1917.51 753.79C1927.12 758.21 1943.19 753.26 1963.78 728.79C2049.62 626.86 2048.38 595.46 2047.77 572Z" fill="#FCBE9F" stroke="#070707" stroke-width="6" stroke-linecap="round" stroke-linejoin="round"/>
<path d="M2148.08 424.87C2147.27 445.97 2144.17 478.64 2194.37 535.25C2221.29 565.6 2139.37 574.37 2095.5 551.43C2065.33 535.67 2058.09 529.66 2058.09 529.66C2058.09 529.66 2086.45 527.13 2097.49 498.66C2105.11 479.01 2097.54 456.66 2093.72 424.85L2148.08 424.87Z" fill="#FCBE9F" stroke="#070707" stroke-width="6" stroke-linecap="round" stroke-linejoin="round"/>
<path d="M2135.16 429C2135.45 431.7 2129.89 480.64 2100.31 489.61C2103.17 474.01 2096.12 447.61 2094.54 428.97L2135.16 429Z" fill="#1C0E0C"/>
<path d="M2176.57 431.67C2183.33 464.16 2279.38 455.27 2285.81 535.03" stroke="#070707" stroke-width="4" stroke-linecap="round" stroke-linejoin="round"/>
<path d="M2183.55 593.4C2148 577.12 2098.42 528.66 2147.39 454.32C2141.78 452.23 2135.87 448.32 2134.04 441.19C2130.28 426.38 2079.53 408.96 2077.21 377.9C2076.43 367.49 2084.29 342.37 2137.61 345.26C2190.69 348.15 2195.51 411.96 2178.61 431.18C2178.58 431.205 2178.55 431.236 2178.53 431.27C2186 467.5 2287.75 467.7 2273.18 557C2269.12 581.94 2231 615.12 2183.55 593.4Z" fill="#1C0E0C"/>
<path d="M2131.78 440.94C2131.65 443.63 2126.6 461.17 2090.88 469.55C2084.4 471.08 2067.31 471.55 2066.88 467.55C2066.4 462.85 2063.52 444.29 2063.25 434.36C2063.17 431.3 2053.1 424.44 2054.94 422.22C2060.59 415.4 2070.58 407.57 2070.8 404.76C2072.47 383.64 2080.39 371.87 2088.16 372.29C2092.6 372.53 2086.96 411.71 2131.79 424.52C2131.79 424.52 2144.53 417.91 2146.43 424.89C2148.33 431.87 2131.78 440.94 2131.78 440.94Z" fill="#FCBE9F" stroke="#070707" stroke-width="6" stroke-linecap="round" stroke-linejoin="round"/>
<path d="M1083.42 1617.09C1083.42 1617.09 1066.86 1651.52 1078.23 1663.97H1224.29C1224.29 1663.97 1223.48 1639.86 1188.29 1636.06C1156.72 1632.65 1137.49 1617.06 1137.49 1617.06L1083.42 1617.09Z" fill="white"/>
<path d="M1225.95 1663.97H1075.98C1074.88 1663.97 1073.99 1664.86 1073.99 1665.96V1670.64C1073.99 1671.74 1074.88 1672.63 1075.98 1672.63H1225.95C1227.05 1672.63 1227.94 1671.74 1227.94 1670.64V1665.96C1227.94 1664.86 1227.05 1663.97 1225.95 1663.97Z" fill="white"/>
<path d="M1147 1634.91L1151.91 1623.84C1152.19 1623.19 1152.61 1622.61 1153.12 1622.12C1153.64 1621.64 1154.25 1621.27 1154.92 1621.03C1155.59 1620.79 1156.29 1620.69 1157 1620.73C1157.71 1620.77 1158.4 1620.96 1159.03 1621.28V1621.28C1160.16 1621.85 1161.05 1622.81 1161.52 1623.99C1162 1625.17 1162.03 1626.47 1161.61 1627.67L1160.93 1629.54" stroke="white" stroke-width="6" stroke-linecap="round" stroke-linejoin="round"/>
<path d="M1161.43 1640.06L1166.18 1628.71C1166.43 1628.14 1166.79 1627.63 1167.25 1627.21C1167.7 1626.79 1168.23 1626.46 1168.82 1626.26C1169.4 1626.05 1170.02 1625.96 1170.64 1626C1171.25 1626.04 1171.86 1626.2 1172.41 1626.48C1173.4 1626.98 1174.17 1627.82 1174.59 1628.85C1175 1629.87 1175.03 1631.02 1174.66 1632.06L1174.25 1633.63" stroke="white" stroke-width="6" stroke-linecap="round" stroke-linejoin="round"/>
<path d="M1176.06 1644.68L1179.18 1633.21C1179.36 1632.62 1179.65 1632.07 1180.05 1631.59C1180.44 1631.12 1180.93 1630.73 1181.48 1630.45C1182.03 1630.17 1182.63 1630 1183.24 1629.96C1183.86 1629.92 1184.48 1630.01 1185.06 1630.21V1630.21C1187.22 1630.97 1188.64 1633.05 1188.31 1636.09" stroke="white" stroke-width="6" stroke-linecap="round" stroke-linejoin="round"/>
<path d="M823.33 1617.09C823.33 1617.09 806.77 1651.52 818.14 1663.97H956.05C956.05 1663.97 955.23 1639.86 920.05 1636.06C888.47 1632.65 869.25 1617.06 869.25 1617.06L823.33 1617.09Z" fill="white"/>
<path d="M957.7 1663.97H815.89C814.791 1663.97 813.9 1664.86 813.9 1665.96V1670.64C813.9 1671.74 814.791 1672.63 815.89 1672.63H957.7C958.799 1672.63 959.69 1671.74 959.69 1670.64V1665.96C959.69 1664.86 958.799 1663.97 957.7 1663.97Z" fill="white"/>
<path d="M878.71 1634.91L883.62 1623.84C883.906 1623.19 884.321 1622.61 884.84 1622.13C885.358 1621.64 885.969 1621.27 886.636 1621.03C887.303 1620.79 888.011 1620.69 888.719 1620.73C889.426 1620.78 890.117 1620.96 890.75 1621.28V1621.28C891.881 1621.85 892.765 1622.82 893.238 1623.99C893.711 1625.17 893.74 1626.47 893.32 1627.67L892.64 1629.54" stroke="white" stroke-width="6" stroke-linecap="round" stroke-linejoin="round"/>
<path d="M893.19 1640.06L897.94 1628.71C898.19 1628.14 898.552 1627.63 899.005 1627.21C899.459 1626.79 899.993 1626.46 900.576 1626.26C901.159 1626.05 901.778 1625.96 902.396 1626C903.014 1626.04 903.617 1626.2 904.17 1626.48V1626.48C905.157 1626.98 905.929 1627.82 906.343 1628.85C906.756 1629.87 906.784 1631.02 906.42 1632.06L906.01 1633.63" stroke="white" stroke-width="6" stroke-linecap="round" stroke-linejoin="round"/>
<path d="M907.81 1644.68L910.94 1633.21C911.116 1632.62 911.411 1632.07 911.806 1631.59C912.201 1631.12 912.688 1630.73 913.238 1630.45C913.787 1630.17 914.388 1630 915.004 1629.96C915.62 1629.92 916.238 1630.01 916.82 1630.21V1630.21C918.98 1630.97 920.4 1633.05 920.07 1636.09" stroke="white" stroke-width="6" stroke-linecap="round" stroke-linejoin="round"/>
<path d="M1124.15 873.27C1135.15 914.27 1138.93 1052.08 1142.49 1255.16C1145.08 1402.51 1157.88 1612.28 1157.88 1612.28C1157.88 1612.28 1124.22 1626.9 1064.72 1615.54C1064.72 1615.54 1007.72 1427.74 1028.03 1290.93C1031.27 1269.01 1000.46 1139.18 1000.46 1139.18C1000.46 1139.18 877.8 1582 877.8 1618.24C877.8 1618.24 829.99 1627.43 801.59 1618.24C801.59 1618.24 758.69 1416.51 826.75 1299.02C863.4 1235.75 855 1004.35 856 985.7C859.37 919.92 891.56 870.38 891.56 870.38L1124.15 873.27Z" fill="#C5DCDD" stroke="black" stroke-width="6" stroke-linecap="round" stroke-linejoin="round"/>
<path d="M1000.46 1140.81C996.4 1122.95 975.25 993.81 969.57 988.9C963.89 983.99 954.15 977.54 947.66 971.04" stroke="#070707" stroke-width="6" stroke-linecap="round" stroke-linejoin="round"/>
<path d="M1128 893.29C1042.88 938.65 913.65 916.45 882.84 886.12C885.47 880.729 888.374 875.475 891.54 870.38L1124.17 873.27C1125.83 879.864 1127.11 886.548 1128 893.29V893.29Z" fill="#1C0E0C"/>
<path d="M896.66 795.5C895.989 799.89 895.037 804.232 893.81 808.5C860.24 807.96 830.56 803.05 816.31 789.37C774.85 749.57 806.01 652.26 807.96 646.37C822.47 656.02 843.34 666.8 873.08 676.78C886.49 730.84 898.75 781.11 896.66 795.5Z" fill="#FCBE9F" stroke="#070707" stroke-width="6" stroke-linecap="round" stroke-linejoin="round"/>
<path d="M808 646.35C822.51 656 843.38 666.78 873.12 676.76C876.21 689.23 879.24 701.48 882.05 713.15C842.05 695.28 821.77 673.97 804.27 659.4L808 646.35Z" fill="#1C0E0C"/>
<path d="M1424 467.72C1422 465.11 1418.62 464.58 1417.94 463.5C1417.26 462.42 1417.49 459.7 1415.49 457.95C1413.49 456.2 1410.56 456.47 1409.31 455.45C1408.06 454.43 1408.91 451.45 1406.53 448.9C1404.15 446.35 1400.75 446.67 1399.99 445.9C1399.23 445.13 1412.5 422.02 1407.45 419.03C1402.4 416.04 1376.55 448.81 1371.45 456.49C1360.95 472.32 1360.85 492.19 1359.45 499.31C1359.34 499.386 1359.24 499.473 1359.15 499.57C1355.1 504.44 1259.31 599.4 1242.27 631.06L1227.1 608.06L1140 669.75C1140 669.75 1203.31 761.75 1259.3 742.28C1312.3 723.85 1372.57 544.77 1383.69 520.12C1401.97 516.51 1417.26 496.2 1422.24 486.94C1428.71 475 1426 470.32 1424 467.72Z" fill="#FCBE9F" stroke="#070707" stroke-width="6" stroke-linecap="round" stroke-linejoin="round"/>
<path d="M1231.33 614.53C1216.75 648.163 1191.81 676.259 1160.14 694.72C1152.94 686.793 1146.23 678.445 1140.02 669.72L1227.09 608.08L1231.33 614.53Z" fill="#1C0E0C"/>
<path d="M873.08 676.76C886.49 730.84 898.75 781.11 896.66 795.5C892.28 825.69 868.02 862.88 879.39 871.5C911.26 895.81 1014.13 921.06 1132.44 879.5C1132.44 879.5 1117.29 850.94 1133.67 736.87C1136.09 720.01 1139.28 696.54 1142.52 670.73H1142.59C1195.74 652.05 1236.93 596.55 1236.93 596.55C1236.93 596.55 1211.09 527.93 1182.57 504.81C1164.57 490.21 1071.32 464.05 1063.7 459.61L953.05 458.14C945.67 458.76 866.63 483.81 834.14 507.74C804.57 529.52 776.85 616.44 776.85 616.44C776.85 616.44 792.12 649.56 873.08 676.76Z" fill="#F4F1ED" stroke="#070707" stroke-width="6" stroke-linecap="round" stroke-linejoin="round"/>
<path d="M949.74 458.82C958.57 454.71 989.4 423 984.54 384.71L1053.11 392.51C1053.11 392.51 1059.96 440.09 1071.32 464.11C1047.25 470.19 1022.5 473.125 997.68 472.84C956.77 472.32 949.74 458.82 949.74 458.82Z" fill="#FCBE9F" stroke="#070707" stroke-width="6" stroke-linecap="round" stroke-linejoin="round"/>
<path d="M1062.69 440.22C1055.8 439.42 1041.11 436.41 1033.32 429.22C1020.63 417.52 1002.82 391.66 1002.65 386.93L1053.11 392.51C1053.11 392.51 1057.35 416.37 1062.69 440.22Z" fill="#1C0E0C"/>
<path d="M1019.21 387.29C1019.21 387.29 1030 406.52 1041.06 409.29C1052.12 412.06 1077.47 409.9 1085.18 405.29C1089.94 402.45 1088.5 378.86 1087.59 370.29C1087.41 368.64 1100.43 363.13 1099.59 358.1C1098.7 352.76 1083.94 340.1 1082.64 333.01C1078.82 312.2 1073.64 292.55 1071.94 291.82C1069.18 290.61 1025.77 293.37 1020.64 305.22C1015.51 317.07 1021.97 353.76 1021.97 353.76C1021.97 353.76 1007.97 345.57 1003.77 356.51C997.55 372.54 1019.21 387.29 1019.21 387.29Z" fill="#FCBE9F" stroke="#070707" stroke-width="6" stroke-linecap="round" stroke-linejoin="round"/>
<path d="M1100.36 278.57C1115.44 290.75 1092.77 341.09 1046.8 305.35" stroke="black" stroke-width="6" stroke-linecap="round" stroke-linejoin="round"/>
<path d="M936 317.44C944.86 301.63 962.28 314.85 962.28 314.85" stroke="black" stroke-width="6" stroke-linecap="round" stroke-linejoin="round"/>
<path d="M1086.39 367.53C1086.39 367.53 1069.39 381.36 1059.8 382.53C1050.21 383.7 1042.25 354.88 1039.29 342.14C1032.65 312.56 1033.43 300.74 1060.92 310.83C1097.18 324.14 1104.44 279.29 1090.45 271.74C1081.54 266.94 1077.22 268.43 1064.66 274.74C1050.66 281.82 1021.01 258.38 985.75 268.74C952.64 278.46 957.69 311.88 957.69 311.88C957.69 311.88 944.63 309.51 942.26 328.6C940.39 343.7 961.34 370.45 977.49 400.37C982.02 408.76 1003.98 403.75 1009.39 395.29C1009.39 395.29 1016.63 382.94 1007.57 367.95C1000.14 355.67 1012.93 345.76 1025.67 356.47C1023.8 365.06 1019.75 388.26 1027.42 400.23C1038.89 418.13 1098.01 420.8 1099.48 410.85C1100.95 400.9 1086.39 367.53 1086.39 367.53Z" fill="#1C0E0C"/>
<path d="M2132.79 438.87C2140.88 438.87 2147.44 432.311 2147.44 424.22C2147.44 416.129 2140.88 409.57 2132.79 409.57C2124.7 409.57 2118.14 416.129 2118.14 424.22C2118.14 432.311 2124.7 438.87 2132.79 438.87Z" fill="#FCBE9F"/>
<path d="M2127.22 433.16C2127.22 433.16 2125.53 427.39 2127.09 422.16C2127.62 420.265 2128.67 418.553 2130.11 417.212C2131.55 415.871 2133.33 414.954 2135.26 414.56" stroke="#070707" stroke-width="4" stroke-linecap="round" stroke-linejoin="round"/>
<path d="M2135.26 425.97L2127.09 422.18" stroke="#070707" stroke-width="4" stroke-linecap="round" stroke-linejoin="round"/>
<path d="M2143.67 447.45C2147.43 447.45 2150.48 444.401 2150.48 440.64C2150.48 436.879 2147.43 433.83 2143.67 433.83C2139.91 433.83 2136.86 436.879 2136.86 440.64C2136.86 444.401 2139.91 447.45 2143.67 447.45Z" fill="#F7F3EF" stroke="#070707" stroke-width="4" stroke-linecap="round" stroke-linejoin="round"/>
<path d="M2078.69 410.94C2080.53 410.94 2082.02 408.755 2082.02 406.06C2082.02 403.365 2080.53 401.18 2078.69 401.18C2076.85 401.18 2075.36 403.365 2075.36 406.06C2075.36 408.755 2076.85 410.94 2078.69 410.94Z" fill="#1C0E0C"/>
<path d="M2066.94 440.64C2066.94 440.64 2074.48 441.31 2078.69 436.21" stroke="#070707" stroke-width="4" stroke-linecap="round" stroke-linejoin="round"/>
<path d="M1033.74 386C1027.11 387.839 1020.02 386.969 1014.03 383.581C1008.04 380.194 1003.64 374.565 1001.81 367.935C999.966 361.305 1000.84 354.215 1004.22 348.226C1007.61 342.237 1013.24 337.839 1019.87 336" fill="#FCBE9F"/>
<path d="M1033.74 386C1027.11 387.839 1020.02 386.969 1014.03 383.581C1008.04 380.194 1003.64 374.565 1001.81 367.935C999.966 361.305 1000.84 354.215 1004.22 348.226C1007.61 342.237 1013.24 337.839 1019.87 336" stroke="#070707" stroke-width="6" stroke-linecap="round" stroke-linejoin="round"/>
<path d="M1011 358C1011 358 1021.35 351.27 1029.11 363.17Z" fill="#FCBE9F"/>
<path d="M1011 358C1011 358 1021.35 351.27 1029.11 363.17" stroke="#070707" stroke-width="6" stroke-linecap="round" stroke-linejoin="round"/>
<path d="M1022.63 357.13L1017.3 367.53" stroke="#070707" stroke-width="6" stroke-linecap="round" stroke-linejoin="round"/>
<path d="M1070.91 346.282C1073.15 345.846 1074.42 342.763 1073.77 339.397C1073.11 336.031 1070.77 333.656 1068.53 334.092C1066.3 334.528 1065.02 337.611 1065.68 340.977C1066.34 344.343 1068.68 346.718 1070.91 346.282Z" fill="#1C0E0C"/>
<path d="M1065.05 320.406L1055.54 325.545C1053.78 326.495 1053.13 328.691 1054.08 330.45C1055.03 332.209 1057.22 332.865 1058.98 331.914L1068.49 326.776C1070.25 325.826 1070.91 323.63 1069.96 321.871C1069.01 320.112 1066.81 319.456 1065.05 320.406Z" fill="#1C0E0C"/>
<path d="M845.89 573.89L873.08 676.76" stroke="#070707" stroke-width="6" stroke-linecap="round" stroke-linejoin="round"/>
<path d="M1180.61 513.59C1180.61 513.59 1122.52 517.13 1113.66 580.09" stroke="#070707" stroke-width="6" stroke-linecap="round" stroke-linejoin="round"/>
</svg>
