<svg width="2064" height="1767" viewBox="0 0 2064 1767" fill="none" xmlns="http://www.w3.org/2000/svg">
<path d="M1987.71 3.45996H40.9698C20.469 3.45996 3.84985 20.0792 3.84985 40.58V1521.22C3.84985 1541.72 20.469 1558.34 40.9698 1558.34H1987.71C2008.21 1558.34 2024.83 1541.72 2024.83 1521.22V40.58C2024.83 20.0792 2008.21 3.45996 1987.71 3.45996Z" fill="#F4F1ED" stroke="#070707" stroke-width="6" stroke-linecap="round" stroke-linejoin="round"/>
<path d="M3.84985 119.96H2024.83" stroke="#070707" stroke-width="6" stroke-linecap="round" stroke-linejoin="round"/>
<path d="M255.94 51.4399H238.5C232.706 51.4399 228.01 56.1365 228.01 61.9299V79.3699C228.01 85.1634 232.706 89.8599 238.5 89.8599H255.94C261.733 89.8599 266.43 85.1634 266.43 79.3699V61.9299C266.43 56.1365 261.733 51.4399 255.94 51.4399Z" fill="#1C0E0C"/>
<path d="M190.4 51.4399H172.96C167.166 51.4399 162.47 56.1365 162.47 61.9299V79.3699C162.47 85.1634 167.166 89.8599 172.96 89.8599H190.4C196.193 89.8599 200.89 85.1634 200.89 79.3699V61.9299C200.89 56.1365 196.193 51.4399 190.4 51.4399Z" fill="#1C0E0C"/>
<path d="M124.87 51.4399H107.43C101.636 51.4399 96.9399 56.1365 96.9399 61.9299V79.3699C96.9399 85.1634 101.636 89.8599 107.43 89.8599H124.87C130.663 89.8599 135.36 85.1634 135.36 79.3699V61.9299C135.36 56.1365 130.663 51.4399 124.87 51.4399Z" fill="#1C0E0C"/>
<path d="M248.02 44.39H230.58C224.786 44.39 220.09 49.0865 220.09 54.88V72.32C220.09 78.1135 224.786 82.81 230.58 82.81H248.02C253.813 82.81 258.51 78.1135 258.51 72.32V54.88C258.51 49.0865 253.813 44.39 248.02 44.39Z" fill="#C5DCDD" stroke="black" stroke-width="6" stroke-linecap="round" stroke-linejoin="round"/>
<path d="M182.48 44.39H165.04C159.246 44.39 154.55 49.0865 154.55 54.88V72.32C154.55 78.1135 159.246 82.81 165.04 82.81H182.48C188.273 82.81 192.97 78.1135 192.97 72.32V54.88C192.97 49.0865 188.273 44.39 182.48 44.39Z" fill="#FFBF00" stroke="black" stroke-width="6" stroke-linecap="round" stroke-linejoin="round"/>
<path d="M116.94 44.39H99.4998C93.7063 44.39 89.0098 49.0865 89.0098 54.88V72.32C89.0098 78.1135 93.7063 82.81 99.4998 82.81H116.94C122.733 82.81 127.43 78.1135 127.43 72.32V54.88C127.43 49.0865 122.733 44.39 116.94 44.39Z" fill="#F46F40" stroke="black" stroke-width="6" stroke-linecap="round" stroke-linejoin="round"/>
<path d="M6.05981 1413.34C13.5564 1405.87 23.7051 1401.68 34.2848 1401.68C44.8644 1401.68 55.0132 1405.87 62.5098 1413.34L68.2498 1419.06C75.7464 1426.53 85.8951 1430.72 96.4748 1430.72C107.054 1430.72 117.203 1426.53 124.7 1419.06L128.2 1415.58C135.696 1408.12 145.843 1403.93 156.42 1403.93C166.997 1403.93 177.144 1408.12 184.64 1415.58V1415.58C192.136 1423.05 202.285 1427.24 212.865 1427.24C223.444 1427.24 233.593 1423.05 241.09 1415.58L245.22 1411.45C252.716 1403.98 262.865 1399.79 273.445 1399.79C284.024 1399.79 294.173 1403.98 301.67 1411.45L307.83 1417.59C315.326 1425.05 325.473 1429.24 336.05 1429.24C346.627 1429.24 356.774 1425.05 364.27 1417.59L369.35 1412.52C376.846 1405.05 386.995 1400.86 397.575 1400.86C408.154 1400.86 418.303 1405.05 425.8 1412.52" stroke="black" stroke-width="6" stroke-linecap="round" stroke-linejoin="round"/>
<path d="M6.05981 1444.26C13.5564 1436.79 23.7051 1432.6 34.2848 1432.6C44.8644 1432.6 55.0132 1436.79 62.5098 1444.26L68.2498 1449.98C75.7464 1457.45 85.8951 1461.64 96.4748 1461.64C107.054 1461.64 117.203 1457.45 124.7 1449.98L128.2 1446.5C135.696 1439.04 145.843 1434.85 156.42 1434.85C166.997 1434.85 177.144 1439.04 184.64 1446.5V1446.5C192.136 1453.97 202.285 1458.16 212.865 1458.16C223.444 1458.16 233.593 1453.97 241.09 1446.5L245.22 1442.37C252.716 1434.9 262.865 1430.71 273.445 1430.71C284.024 1430.71 294.173 1434.9 301.67 1442.37L307.83 1448.51C315.326 1455.97 325.473 1460.16 336.05 1460.16C346.627 1460.16 356.774 1455.97 364.27 1448.51L369.35 1443.44C376.846 1435.97 386.995 1431.78 397.575 1431.78C408.154 1431.78 418.303 1435.97 425.8 1443.44" stroke="#070707" stroke-width="6" stroke-linecap="round" stroke-linejoin="round"/>
<path d="M1499.9 311.53C1508.41 311.53 1515.31 304.631 1515.31 296.12C1515.31 287.609 1508.41 280.71 1499.9 280.71C1491.39 280.71 1484.49 287.609 1484.49 296.12C1484.49 304.631 1491.39 311.53 1499.9 311.53Z" stroke="#070707" stroke-width="6" stroke-linecap="round" stroke-linejoin="round"/>
<path d="M1437.98 264.72C1450.14 264.72 1460 254.861 1460 242.7C1460 230.539 1450.14 220.68 1437.98 220.68C1425.82 220.68 1415.96 230.539 1415.96 242.7C1415.96 254.861 1425.82 264.72 1437.98 264.72Z" fill="#EFAF00" stroke="black" stroke-width="6" stroke-linecap="round" stroke-linejoin="round"/>
<path d="M1712.55 787.23C1795.37 787.23 1862.51 720.091 1862.51 637.27C1862.51 554.449 1795.37 487.31 1712.55 487.31C1629.73 487.31 1562.59 554.449 1562.59 637.27C1562.59 720.091 1629.73 787.23 1712.55 787.23Z" fill="#1C0E0C"/>
<path d="M1712.55 772.17C1795.37 772.17 1862.51 705.031 1862.51 622.21C1862.51 539.389 1795.37 472.25 1712.55 472.25C1629.73 472.25 1562.59 539.389 1562.59 622.21C1562.59 705.031 1629.73 772.17 1712.55 772.17Z" fill="#F4F1ED" stroke="#070707" stroke-width="6" stroke-linecap="round" stroke-linejoin="round"/>
<path d="M1740.58 705.2H1654.7L1669.51 584.24H1755.38L1740.58 705.2Z" fill="#F4F1ED"/>
<path d="M1778.38 705.2H1740.63L1755.44 584.24H1763.57L1778.38 705.2Z" fill="#FFBF00"/>
<path d="M1772.2 703.72H1735.02L1750.51 577.18H1756.71L1772.2 703.72Z" stroke="#070707" stroke-width="6" stroke-linecap="round" stroke-linejoin="round"/>
<path d="M1750.51 577.18L1735.02 703.72H1646.73L1662.21 577.18H1750.51Z" stroke="#070707" stroke-width="6" stroke-linecap="round" stroke-linejoin="round"/>
<path d="M1714.31 539.22H1720.41C1722.27 539.22 1724.11 539.586 1725.83 540.298C1727.55 541.009 1729.11 542.052 1730.42 543.367C1731.74 544.682 1732.78 546.243 1733.49 547.961C1734.2 549.679 1734.57 551.52 1734.57 553.38V577.24H1700.14V553.38C1700.14 551.52 1700.51 549.677 1701.22 547.959C1701.93 546.24 1702.97 544.679 1704.29 543.364C1705.61 542.049 1707.17 541.006 1708.89 540.295C1710.61 539.584 1712.45 539.219 1714.31 539.22V539.22Z" stroke="#070707" stroke-width="6" stroke-linecap="round" stroke-linejoin="round"/>
<path d="M1704.25 539.22H1710.35C1712.21 539.22 1714.05 539.586 1715.77 540.298C1717.49 541.009 1719.05 542.052 1720.36 543.367C1721.68 544.682 1722.72 546.243 1723.43 547.961C1724.14 549.679 1724.51 551.52 1724.51 553.38V577.24H1690.08V553.38C1690.08 549.625 1691.57 546.023 1694.23 543.367C1696.88 540.712 1700.48 539.22 1704.24 539.22H1704.25Z" stroke="#070707" stroke-width="6" stroke-linecap="round" stroke-linejoin="round"/>
<path d="M1059.25 1399.8C1047.73 1399.8 1038.39 1408.8 1038.39 1419.97V1588.63C1038.39 1622.51 1066.79 1649.97 1101.81 1649.97H1208.71C1229.53 1649.97 1246.4 1666.29 1246.4 1686.43" stroke="#F4F1ED" stroke-width="6" stroke-linecap="round" stroke-linejoin="round"/>
<path d="M993.94 1399.8C1005.45 1399.8 1014.79 1408.8 1014.79 1419.97V1588.63C1014.79 1622.51 986.4 1649.97 951.37 1649.97H844.47C823.66 1649.97 806.78 1666.29 806.78 1686.43" stroke="#F4F1ED" stroke-width="6" stroke-linecap="round" stroke-linejoin="round"/>
<path d="M1026.59 1383.04C1304.92 1383.04 1530.55 1169.59 1530.55 906.28C1530.55 642.973 1304.92 429.52 1026.59 429.52C748.26 429.52 522.63 642.973 522.63 906.28C522.63 1169.59 748.26 1383.04 1026.59 1383.04Z" fill="#F4F1ED" stroke="#070707" stroke-width="6" stroke-linecap="round" stroke-linejoin="round"/>
<path d="M1026.59 1297.89C1273.23 1297.89 1473.18 1108.73 1473.18 875.4C1473.18 642.065 1273.23 452.91 1026.59 452.91C779.945 452.91 580 642.065 580 875.4C580 1108.73 779.945 1297.89 1026.59 1297.89Z" fill="#EAE5DF"/>
<path d="M1332.27 1133.08C1350.97 1135.87 1358.27 1158.91 1344.63 1172C1263.63 1249.71 1151.06 1297.89 1026.63 1297.89C902.37 1297.89 789.96 1249.89 709.01 1172.41C695.35 1159.34 702.63 1136.29 721.32 1133.48C815.21 1119.32 918.99 1111.48 1028.11 1111.48C1136.19 1111.47 1239.06 1119.17 1332.27 1133.08Z" fill="#FFFBF8" stroke="#070707" stroke-width="6" stroke-linecap="round" stroke-linejoin="round"/>
<path d="M807.44 1763.57C828.741 1763.57 846.01 1746.3 846.01 1725C846.01 1703.7 828.741 1686.43 807.44 1686.43C786.138 1686.43 768.87 1703.7 768.87 1725C768.87 1746.3 786.138 1763.57 807.44 1763.57Z" stroke="#F4F1ED" stroke-width="6" stroke-linecap="round" stroke-linejoin="round"/>
<path d="M1028.49 1763.57C1049.79 1763.57 1067.06 1746.3 1067.06 1725C1067.06 1703.7 1049.79 1686.43 1028.49 1686.43C1007.19 1686.43 989.92 1703.7 989.92 1725C989.92 1746.3 1007.19 1763.57 1028.49 1763.57Z" stroke="#F4F1ED" stroke-width="6" stroke-linecap="round" stroke-linejoin="round"/>
<path d="M1246.89 1763.57C1268.19 1763.57 1285.46 1746.3 1285.46 1725C1285.46 1703.7 1268.19 1686.43 1246.89 1686.43C1225.59 1686.43 1208.32 1703.7 1208.32 1725C1208.32 1746.3 1225.59 1763.57 1246.89 1763.57Z" stroke="#F4F1ED" stroke-width="6" stroke-linecap="round" stroke-linejoin="round"/>
<path d="M1859.39 1071.3C1805.86 1152.3 1704.97 1196.64 1660.39 1171.57C1617.3 1147.33 1613.54 1027.93 1667.08 946.88C1720.62 865.83 1810.08 827.97 1862.13 862.33C1914.18 896.69 1912.93 990.24 1859.39 1071.3Z" fill="#EFAF00" stroke="black" stroke-width="6" stroke-linecap="round" stroke-linejoin="round"/>
<path d="M1666.35 1444.63C1666.35 1444.63 1612.43 1007.22 1861.75 864.31" stroke="#070707" stroke-width="6" stroke-linecap="round" stroke-linejoin="round"/>
<path d="M1897.06 961.92L1747.76 977.16" stroke="#070707" stroke-width="6" stroke-linecap="round" stroke-linejoin="round"/>
<path d="M1895.02 977.68L1738.33 993.67" stroke="#070707" stroke-width="6" stroke-linecap="round" stroke-linejoin="round"/>
<path d="M1668.86 947.76L1706.8 1059.88" stroke="#070707" stroke-width="6" stroke-linecap="round" stroke-linejoin="round"/>
<path d="M2057.29 1294.73C2040.74 1337.43 1968.2 1349.14 1895.29 1320.87C1822.38 1292.6 1794.24 1236.45 1797.43 1217.79C1801.43 1194.27 1887.51 1154.11 1955.24 1166.22C2032.21 1180 2073.85 1252 2057.29 1294.73Z" fill="#EFAF00" stroke="black" stroke-width="6" stroke-linecap="round" stroke-linejoin="round"/>
<path d="M1621.76 1444.63C1621.76 1444.63 1615.22 1252.49 1818.13 1213.05C1929.23 1191.46 2015.13 1247.29 2054.57 1294.63" stroke="#070707" stroke-width="6" stroke-linecap="round" stroke-linejoin="round"/>
<path d="M1929.04 1216.06L1998.32 1184.31" stroke="#070707" stroke-width="6" stroke-linecap="round" stroke-linejoin="round"/>
<path d="M1946.33 1221.57L2010.85 1191.38" stroke="#070707" stroke-width="6" stroke-linecap="round" stroke-linejoin="round"/>
<path d="M1900.37 1210.49L1927.37 1328.16" stroke="#070707" stroke-width="6" stroke-linecap="round" stroke-linejoin="round"/>
<path d="M1581.1 1159.16C1614.03 1208.86 1608.87 1279.25 1582.1 1295.61C1565.86 1305.54 1497.58 1287.61 1464.66 1237.89C1431.74 1188.17 1431.85 1128.55 1463.74 1107.42C1495.63 1086.29 1548.18 1109.46 1581.1 1159.16Z" fill="#EFAF00" stroke="black" stroke-width="6" stroke-linecap="round" stroke-linejoin="round"/>
<path d="M1597.5 1444.63C1597.5 1444.63 1616 1196.14 1464.7 1110" stroke="#070707" stroke-width="6" stroke-linecap="round" stroke-linejoin="round"/>
<path d="M1443.64 1182.55H1539.1" stroke="#070707" stroke-width="6" stroke-linecap="round" stroke-linejoin="round"/>
<path d="M1448.45 1199.06H1548.53" stroke="#070707" stroke-width="6" stroke-linecap="round" stroke-linejoin="round"/>
<path d="M1583.37 1166.01L1566.21 1234.46" stroke="#070707" stroke-width="6" stroke-linecap="round" stroke-linejoin="round"/>
<path d="M1769.63 1487.06V1659.86C1769.64 1665.43 1768.54 1670.95 1766.41 1676.11C1764.28 1681.26 1761.15 1685.94 1757.21 1689.88C1753.27 1693.82 1748.59 1696.94 1743.44 1699.07C1738.29 1701.2 1732.76 1702.3 1727.19 1702.29H1554.4C1548.83 1702.3 1543.31 1701.2 1538.15 1699.07C1533 1696.94 1528.32 1693.82 1524.38 1689.88C1520.44 1685.93 1517.31 1681.25 1515.18 1676.1C1513.05 1670.95 1511.96 1665.43 1511.96 1659.86V1487.06C1511.97 1475.81 1516.44 1465.02 1524.4 1457.06C1532.36 1449.11 1543.15 1444.64 1554.4 1444.63H1727.19C1738.44 1444.63 1749.23 1449.1 1757.19 1457.06C1765.15 1465.02 1769.62 1475.81 1769.63 1487.06V1487.06Z" fill="#F4F1ED" stroke="#070707" stroke-width="6" stroke-linecap="round" stroke-linejoin="round"/>
<path d="M1728.52 1444.63H1553.06C1530.36 1444.63 1511.96 1463.03 1511.96 1485.73V1661.19C1511.96 1683.89 1530.36 1702.29 1553.06 1702.29H1728.52C1751.22 1702.29 1769.62 1683.89 1769.62 1661.19V1485.73C1769.62 1463.03 1751.22 1444.63 1728.52 1444.63Z" stroke="#FFC3D5" stroke-width="6" stroke-miterlimit="10"/>
<path d="M1769.63 1487.06V1659.86C1769.64 1665.43 1768.54 1670.95 1766.41 1676.11C1764.28 1681.26 1761.15 1685.94 1757.21 1689.88C1753.27 1693.82 1748.59 1696.94 1743.44 1699.07C1738.29 1701.2 1732.76 1702.3 1727.19 1702.29H1554.4C1548.83 1702.3 1543.31 1701.2 1538.15 1699.07C1533 1696.94 1528.32 1693.82 1524.38 1689.88C1520.44 1685.93 1517.31 1681.25 1515.18 1676.1C1513.05 1670.95 1511.96 1665.43 1511.96 1659.86V1487.06C1511.97 1475.81 1516.44 1465.02 1524.4 1457.06C1532.36 1449.11 1543.15 1444.64 1554.4 1444.63H1727.19C1738.44 1444.63 1749.23 1449.1 1757.19 1457.06C1765.15 1465.02 1769.62 1475.81 1769.63 1487.06V1487.06Z" stroke="#070707" stroke-width="6" stroke-linecap="round" stroke-linejoin="round"/>
<path d="M1156.78 1008.67V1009.53H1153.26V1008.67H1156.78ZM1154.31 1015.22V1007.77C1154.31 1007.4 1154.4 1007.08 1154.58 1006.83C1154.75 1006.58 1154.98 1006.4 1155.26 1006.27C1155.54 1006.15 1155.84 1006.08 1156.15 1006.08C1156.4 1006.08 1156.6 1006.1 1156.76 1006.14C1156.92 1006.18 1157.03 1006.22 1157.11 1006.25L1156.82 1007.12C1156.77 1007.11 1156.7 1007.09 1156.61 1007.06C1156.52 1007.03 1156.4 1007.02 1156.26 1007.02C1155.92 1007.02 1155.68 1007.1 1155.54 1007.27C1155.39 1007.44 1155.32 1007.69 1155.32 1008.01V1015.22H1154.31ZM1159.93 1015.37C1159.52 1015.37 1159.14 1015.3 1158.8 1015.14C1158.47 1014.98 1158.2 1014.75 1158 1014.45C1157.8 1014.15 1157.7 1013.79 1157.7 1013.36C1157.7 1012.99 1157.77 1012.68 1157.92 1012.45C1158.07 1012.21 1158.27 1012.03 1158.51 1011.9C1158.76 1011.76 1159.03 1011.66 1159.33 1011.6C1159.63 1011.53 1159.94 1011.48 1160.24 1011.44C1160.64 1011.38 1160.96 1011.35 1161.21 1011.32C1161.46 1011.29 1161.64 1011.25 1161.75 1011.18C1161.87 1011.11 1161.93 1011 1161.93 1010.84V1010.81C1161.93 1010.38 1161.81 1010.06 1161.58 1009.83C1161.35 1009.59 1161.01 1009.48 1160.55 1009.48C1160.07 1009.48 1159.69 1009.58 1159.42 1009.79C1159.14 1010 1158.95 1010.23 1158.84 1010.46L1157.89 1010.12C1158.06 1009.73 1158.29 1009.42 1158.57 1009.19C1158.86 1008.97 1159.17 1008.81 1159.51 1008.73C1159.85 1008.63 1160.18 1008.59 1160.51 1008.59C1160.72 1008.59 1160.96 1008.61 1161.24 1008.67C1161.51 1008.71 1161.78 1008.82 1162.03 1008.97C1162.29 1009.12 1162.51 1009.35 1162.68 1009.66C1162.85 1009.97 1162.93 1010.39 1162.93 1010.91V1015.22H1161.93V1014.33H1161.88C1161.81 1014.48 1161.69 1014.63 1161.54 1014.79C1161.38 1014.95 1161.16 1015.09 1160.9 1015.2C1160.64 1015.32 1160.31 1015.37 1159.93 1015.37ZM1160.09 1014.47C1160.48 1014.47 1160.82 1014.39 1161.09 1014.24C1161.37 1014.08 1161.58 1013.88 1161.71 1013.63C1161.86 1013.38 1161.93 1013.12 1161.93 1012.85V1011.93C1161.88 1011.98 1161.79 1012.03 1161.65 1012.07C1161.5 1012.11 1161.34 1012.15 1161.15 1012.18C1160.97 1012.21 1160.79 1012.23 1160.61 1012.25C1160.44 1012.27 1160.3 1012.29 1160.19 1012.31C1159.93 1012.34 1159.68 1012.39 1159.46 1012.47C1159.23 1012.55 1159.05 1012.66 1158.91 1012.81C1158.77 1012.96 1158.71 1013.16 1158.71 1013.41C1158.71 1013.76 1158.84 1014.03 1159.09 1014.21C1159.35 1014.38 1159.69 1014.47 1160.09 1014.47ZM1167.68 1008.67V1009.53H1164.15V1008.67H1167.68ZM1165.21 1015.22V1007.77C1165.21 1007.4 1165.3 1007.08 1165.48 1006.83C1165.65 1006.58 1165.88 1006.4 1166.16 1006.27C1166.44 1006.15 1166.74 1006.08 1167.05 1006.08C1167.3 1006.08 1167.5 1006.1 1167.66 1006.14C1167.81 1006.18 1167.93 1006.22 1168.01 1006.25L1167.72 1007.12C1167.67 1007.11 1167.6 1007.09 1167.5 1007.06C1167.42 1007.03 1167.3 1007.02 1167.15 1007.02C1166.82 1007.02 1166.58 1007.1 1166.43 1007.27C1166.29 1007.44 1166.22 1007.69 1166.22 1008.01V1015.22H1165.21ZM1171.85 1006.37C1172.21 1006.38 1172.57 1006.44 1172.93 1006.58C1173.29 1006.71 1173.61 1006.93 1173.91 1007.24C1174.2 1007.55 1174.44 1007.97 1174.62 1008.5C1174.8 1009.03 1174.89 1009.7 1174.89 1010.5C1174.89 1011.27 1174.81 1011.96 1174.67 1012.57C1174.52 1013.16 1174.31 1013.67 1174.04 1014.08C1173.76 1014.49 1173.43 1014.81 1173.04 1015.02C1172.65 1015.23 1172.21 1015.34 1171.72 1015.34C1171.23 1015.34 1170.79 1015.24 1170.41 1015.05C1170.03 1014.85 1169.72 1014.58 1169.47 1014.24C1169.23 1013.89 1169.08 1013.48 1169.01 1013.02H1170.05C1170.14 1013.42 1170.33 1013.75 1170.61 1014.01C1170.89 1014.27 1171.26 1014.4 1171.72 1014.4C1172.39 1014.4 1172.92 1014.11 1173.31 1013.52C1173.7 1012.93 1173.9 1012.1 1173.9 1011.03H1173.83C1173.67 1011.27 1173.48 1011.47 1173.26 1011.64C1173.05 1011.82 1172.8 1011.95 1172.54 1012.05C1172.27 1012.14 1171.98 1012.19 1171.68 1012.19C1171.18 1012.19 1170.72 1012.06 1170.31 1011.82C1169.89 1011.57 1169.56 1011.22 1169.31 1010.79C1169.06 1010.35 1168.94 1009.85 1168.94 1009.29C1168.94 1008.75 1169.06 1008.27 1169.3 1007.82C1169.54 1007.38 1169.88 1007.02 1170.31 1006.76C1170.75 1006.49 1171.26 1006.36 1171.85 1006.37ZM1171.85 1007.31C1171.5 1007.31 1171.17 1007.4 1170.89 1007.58C1170.6 1007.76 1170.38 1007.99 1170.21 1008.3C1170.04 1008.59 1169.96 1008.92 1169.96 1009.29C1169.96 1009.65 1170.04 1009.98 1170.2 1010.28C1170.36 1010.58 1170.58 1010.81 1170.86 1010.99C1171.14 1011.16 1171.46 1011.25 1171.82 1011.25C1172.09 1011.25 1172.34 1011.2 1172.57 1011.09C1172.81 1010.98 1173.01 1010.84 1173.18 1010.65C1173.36 1010.46 1173.5 1010.25 1173.6 1010.02C1173.7 1009.78 1173.75 1009.53 1173.75 1009.27C1173.75 1008.93 1173.66 1008.61 1173.5 1008.31C1173.34 1008.01 1173.11 1007.77 1172.83 1007.59C1172.54 1007.4 1172.22 1007.31 1171.85 1007.31ZM1179.5 1008.67V1009.53H1175.97V1008.67H1179.5ZM1177.02 1015.22V1007.77C1177.02 1007.4 1177.11 1007.08 1177.29 1006.83C1177.46 1006.58 1177.69 1006.4 1177.97 1006.27C1178.26 1006.15 1178.55 1006.08 1178.87 1006.08C1179.11 1006.08 1179.31 1006.1 1179.47 1006.14C1179.63 1006.18 1179.74 1006.22 1179.82 1006.25L1179.53 1007.12C1179.48 1007.11 1179.41 1007.09 1179.32 1007.06C1179.23 1007.03 1179.11 1007.02 1178.97 1007.02C1178.64 1007.02 1178.4 1007.1 1178.25 1007.27C1178.1 1007.44 1178.03 1007.69 1178.03 1008.01V1015.22H1177.02ZM1181.16 1015.22L1185.06 1007.5V1007.43H1180.56V1006.49H1186.16V1007.48L1182.27 1015.22H1181.16Z" fill="black"/>
<path d="M348.82 542.49C436.291 542.49 507.2 471.581 507.2 384.11C507.2 296.639 436.291 225.73 348.82 225.73C261.349 225.73 190.44 296.639 190.44 384.11C190.44 471.581 261.349 542.49 348.82 542.49Z" fill="#1C0E0C"/>
<path d="M348.82 522.49C436.291 522.49 507.2 451.581 507.2 364.11C507.2 276.639 436.291 205.73 348.82 205.73C261.349 205.73 190.44 276.639 190.44 364.11C190.44 451.581 261.349 522.49 348.82 522.49Z" fill="#F4F1ED" stroke="#070707" stroke-width="6" stroke-linecap="round" stroke-linejoin="round"/>
<path d="M306.27 411.1H413.84L435.38 341.43H284.82L306.27 411.1Z" fill="#FFBF00"/>
<path d="M230.81 309.63H253.55C256.942 309.63 260.245 310.717 262.975 312.731C265.705 314.744 267.718 317.579 268.72 320.82L295.82 408.46H405.34L410.75 430.39C411.155 432.034 411.181 433.749 410.825 435.404C410.47 437.059 409.742 438.612 408.698 439.945C407.653 441.277 406.319 442.355 404.797 443.095C403.274 443.836 401.603 444.221 399.91 444.22H300.38" stroke="#070707" stroke-width="6" stroke-linecap="round" stroke-linejoin="round"/>
<path d="M295.73 408.46H405L427.63 335.28H273.19L295.73 408.46Z" stroke="#070707" stroke-width="6" stroke-linecap="round" stroke-linejoin="round"/>
<path d="M364.83 408.46L387.46 335.28" stroke="#070707" stroke-width="6" stroke-linecap="round" stroke-linejoin="round"/>
<path d="M340.43 408.46L317.8 335.28" stroke="#070707" stroke-width="6" stroke-linecap="round" stroke-linejoin="round"/>
<path d="M283.77 369.49H417.06" stroke="#070707" stroke-width="6" stroke-linecap="round" stroke-linejoin="round"/>
<path d="M313.27 474.78C319.373 474.78 324.32 469.833 324.32 463.73C324.32 457.627 319.373 452.68 313.27 452.68C307.167 452.68 302.22 457.627 302.22 463.73C302.22 469.833 307.167 474.78 313.27 474.78Z" stroke="#070707" stroke-width="6" stroke-linecap="round" stroke-linejoin="round"/>
<path d="M393.62 474.78C399.723 474.78 404.67 469.833 404.67 463.73C404.67 457.627 399.723 452.68 393.62 452.68C387.517 452.68 382.57 457.627 382.57 463.73C382.57 469.833 387.517 474.78 393.62 474.78Z" stroke="#070707" stroke-width="6" stroke-linecap="round" stroke-linejoin="round"/>
<path d="M350.19 251.59V308.16" stroke="#070707" stroke-width="6" stroke-linecap="round" stroke-linejoin="round"/>
<path d="M322.58 283.75L349.93 311.1L375.84 285.19" stroke="#070707" stroke-width="6" stroke-linecap="round" stroke-linejoin="round"/>
<path d="M1203.8 828.33C1203.8 828.33 1310.34 1004.75 1261.8 1089.11C1213.26 1173.47 1127.74 1204.81 1026.6 1193.93C770.38 1166.38 454.94 969.15 462.89 905.52C473.62 819.66 945.36 918.07 945.36 918.07L987.36 829.19L1203.8 828.33Z" fill="#C5DCDD" stroke="black" stroke-width="6" stroke-linecap="round" stroke-linejoin="round"/>
<path d="M465.9 895.41C451.66 910.07 347.66 1113.97 975.43 1262.32L999 1219C999 1219 578.39 779.56 465.9 895.41Z" fill="#C5DCDD" stroke="black" stroke-width="6" stroke-linecap="round" stroke-linejoin="round"/>
<path d="M999.86 1219C999.86 1219 789.26 999 626.25 911.35" stroke="#4B556A" stroke-width="6" stroke-miterlimit="10"/>
<path d="M975.43 1262.32C1004.43 1267.5 1127.63 1310.09 1154.9 1304.41C1182.17 1298.73 1138.9 1217.81 1121.9 1214.41C1104.9 1211.01 1020.9 1220.48 999.03 1219C977.16 1217.52 975.43 1262.32 975.43 1262.32Z" fill="#C48270" stroke="#0F0F0F" stroke-width="6" stroke-linecap="round" stroke-linejoin="round"/>
<path d="M1124.55 1081C1015.23 1311.49 703.84 1574.38 703.84 1574.38C703.84 1574.38 680.31 1554.01 650.77 1552.75C650.77 1552.75 929.41 933.09 1086.77 903.03C1214 878.68 1142.92 1042.24 1124.55 1081Z" fill="#C5DCDD" stroke="black" stroke-width="6" stroke-linecap="round" stroke-linejoin="round"/>
<path d="M650.68 1551.28C622.91 1595.57 579.95 1688.69 553 1720.98C544.24 1731.47 621.58 1734.59 633.32 1725.25C649.45 1712.42 650.68 1664.41 682.71 1658.25C705.12 1653.96 727.58 1639 717.13 1617.4C702.41 1587 704.55 1572.61 704.55 1572.61C679.21 1544.34 650.68 1551.28 650.68 1551.28Z" fill="#C48270" stroke="#0F0F0F" stroke-width="6" stroke-linecap="round" stroke-linejoin="round"/>
<path d="M995.68 496.34C1046.81 579.86 979.52 773.34 948.56 802.24C891.22 855.83 641.27 848.24 641.27 848.24L631.12 825.24C631.12 825.24 768.87 750.13 878.8 744.17C878.8 744.17 908.13 593.41 917.86 550.17C930.12 495.68 960.39 438.69 995.68 496.34Z" fill="#C48270" stroke="#0F0F0F" stroke-width="6" stroke-linecap="round" stroke-linejoin="round"/>
<path d="M659.3 827.24C653.79 813.44 606.6 822.08 587.85 830.79C571.9 838.2 552.61 858.09 549.46 862.3C546.31 866.51 539.3 887.77 539.3 887.77C539.3 887.77 546.09 894.95 555.24 882.43C564.39 869.91 588.12 855.57 594.01 858.71C607.25 865.78 575.17 868.56 571.66 873.64C568.15 878.72 569.82 881.74 569.82 881.74C569.82 881.74 599.97 880.37 604.82 879.74C609.67 879.11 628.89 870.41 638.29 862.53C647.69 854.65 662.74 835.84 659.3 827.24Z" fill="#E38E32"/>
<path d="M1199 445.81C1214.48 450.4 1263 468.46 1263 468.46C1263 468.46 1258.89 585.72 1245.13 613.46C1187.49 729.68 1205.43 836.76 1205.43 836.76C1205.43 836.76 1068.93 859.48 985.43 837.57C985.43 837.57 996.35 749.15 978.51 738.57C960.67 727.99 931.45 704.22 939.51 656.36C947.57 608.5 945.73 482.99 955.51 474.88C965.29 466.77 1008.51 445.67 1019.67 445.71C1030.83 445.75 1199 445.81 1199 445.81Z" fill="#F4F1ED" stroke="#070707" stroke-width="6" stroke-linecap="round" stroke-linejoin="round"/>
<path d="M772.93 682.58H467.28C463.911 682.58 460.593 683.394 457.606 684.952C454.62 686.511 452.054 688.768 450.128 691.531C448.201 694.294 446.971 697.482 446.541 700.823C446.111 704.164 446.495 707.559 447.66 710.72L524.66 920.11H882.58L802.9 703.51C800.639 697.378 796.555 692.086 791.198 688.344C785.84 684.603 779.465 682.591 772.93 682.58Z" fill="#F9A09B" stroke="black" stroke-width="6" stroke-linecap="round" stroke-linejoin="round"/>
<path d="M766.92 693.2H468.92C465.635 693.201 462.4 693.995 459.488 695.515C456.576 697.035 454.074 699.235 452.195 701.929C450.316 704.623 449.115 707.731 448.694 710.989C448.274 714.246 448.646 717.557 449.78 720.64L524.9 924.82H873.9L796.2 713.61C793.994 707.621 790.004 702.453 784.768 698.803C779.532 695.153 773.302 693.197 766.92 693.2V693.2Z" fill="#F9A09B" stroke="black" stroke-width="6" stroke-linecap="round" stroke-linejoin="round"/>
<path d="M524.85 920.79H1031C1036.73 920.79 1042.22 923.066 1046.27 927.116C1050.32 931.167 1052.6 936.661 1052.6 942.39V947.15H546.45C540.721 947.15 535.227 944.874 531.176 940.823C527.126 936.773 524.85 931.279 524.85 925.55V920.79V920.79Z" fill="#F46F40" stroke="black" stroke-width="6" stroke-linecap="round" stroke-linejoin="round"/>
<path d="M772.93 682.58H467.28C463.911 682.58 460.593 683.394 457.606 684.952C454.62 686.511 452.054 688.768 450.128 691.531C448.201 694.294 446.971 697.482 446.541 700.823C446.111 704.164 446.495 707.559 447.66 710.72L524.66 920.11H882.58L802.9 703.51C800.639 697.378 796.555 692.086 791.198 688.344C785.84 684.603 779.465 682.591 772.93 682.58Z" fill="#F46F40" stroke="black" stroke-width="6" stroke-linecap="round" stroke-linejoin="round"/>
<path d="M667.461 827.304C674.704 819.259 672.534 805.497 662.614 796.565C652.694 787.633 638.78 786.914 631.537 794.958C624.294 803.002 626.464 816.764 636.384 825.697C646.304 834.629 660.218 835.348 667.461 827.304Z" fill="#F46F40" stroke="black" stroke-width="6" stroke-linecap="round" stroke-linejoin="round"/>
<path d="M930.98 930.21H909.59V937.89H930.98V930.21Z" fill="#F9A09B" stroke="black" stroke-width="6" stroke-linecap="round" stroke-linejoin="round"/>
<path d="M971.85 930.21H950.46V937.89H971.85V930.21Z" fill="#F9A09B" stroke="black" stroke-width="6" stroke-linecap="round" stroke-linejoin="round"/>
<path d="M1046.65 216.92C1046.65 216.92 972.94 182.34 927.26 254.83C881.47 327.49 944.26 359.83 911.46 396.93C875.97 437.09 831.04 460.61 867.46 540.19C904.58 621.34 809.92 591.42 830.39 681.76H990.89C990.89 681.76 1059.94 657.59 1039.22 598.04C1018.5 538.49 974.1 530.25 1015.71 477.71C1046.96 438.26 1191.13 446.3 1204.08 449.71C1217.03 453.12 1272.21 472 1272.21 472C1272.21 472 1294.15 406.35 1262.77 370.19C1223.06 324.45 1156.84 358.19 1144.77 304.5C1136.61 268.3 1120.77 226.26 1094.45 218.31C1066.17 209.77 1046.65 216.92 1046.65 216.92Z" fill="#1C0E0C"/>
<path d="M1040.09 226C1040.09 226 1024.59 201.93 945.89 256.8C897.25 290.72 931.25 359.8 898.45 396.9C862.96 437.06 818.04 460.58 854.45 540.16C891.57 621.31 796.91 591.39 817.38 681.73" stroke="#070707" stroke-width="6" stroke-linecap="round" stroke-linejoin="round"/>
<path d="M1102.87 343.05C1102.87 343.05 1100.41 397.72 1120.36 425.77C1133.93 444.82 1121.74 443.22 1169.06 448.66C1169.06 448.66 1174 518.85 1064.44 518.85C983.14 518.85 1015.69 477.71 1015.69 477.71C1015.69 477.71 1049.63 428.54 1035 343.05H1102.87Z" fill="#C48270" stroke="#0F0F0F" stroke-width="6" stroke-linecap="round" stroke-linejoin="round"/>
<path d="M1103.94 338.8C1103.94 338.8 1106.04 448.66 1018.19 448.66C1016.41 448.653 1014.66 448.247 1013.06 447.47C1017.68 444.25 1046.52 420.53 1032.29 337.38H1103.94C1103.94 337.38 1103.94 337.86 1103.94 338.76V338.8Z" fill="#1C0E0C"/>
<path d="M1106.34 337C1106.34 337 1093.76 430.92 1034.11 431.37C994.88 431.66 972.22 376.65 963.03 347.81C952.54 314.88 963.66 249.06 1019.62 249.89C1068.22 250.62 1093.62 316.89 1093.62 316.89L1106.34 337Z" fill="#C48270" stroke="#0F0F0F" stroke-width="6" stroke-linecap="round" stroke-linejoin="round"/>
<path d="M1094.87 332.24C1094.87 332.24 1092.49 324.11 1094.69 316.77C1096.09 312.12 1099.34 307.77 1106.2 306.05" stroke="#070707" stroke-width="6" stroke-linecap="round" stroke-linejoin="round"/>
<path d="M1106.2 322.11L1094.69 316.77" stroke="#070707" stroke-width="6" stroke-linecap="round" stroke-linejoin="round"/>
<path d="M1195.3 477C1195.3 477 1160.92 566.12 1215.91 614C1233.64 629.43 1259.81 615.33 1259.81 615.33" fill="#C48270"/>
<path d="M1195.3 477C1195.3 477 1160.92 566.12 1215.91 614C1233.64 629.43 1259.81 615.33 1259.81 615.33" stroke="#0F0F0F" stroke-width="6" stroke-linecap="round" stroke-linejoin="round"/>
<path d="M1221.1 567.4C1240.7 629.46 1266.69 717.19 1266.69 717.19C1163.59 722.79 1008.15 785.32 989.22 793.07C957.8 800.07 913.31 825.51 904.76 830.62C896.76 835.17 884.18 847.78 880.38 852.84C876.38 858.12 867.07 877.13 867.07 877.13C869.053 878.11 871.307 878.396 873.472 877.943C875.637 877.49 877.587 876.323 879.01 874.63C882.68 870.63 888.84 860.99 893.78 856.3C889.3 867.55 885.11 879.17 885.11 879.17C885.11 879.17 896.22 881.89 910.46 877.29C917.28 875.09 924.82 862.01 932.8 853.4C940.78 844.79 958.19 848.86 975.62 845.91C993.05 842.96 1005.15 817.4 1005.15 817.4L1004.91 816.98C1050.16 817.73 1288.14 819.28 1339.98 770.84C1370.98 741.91 1330.8 553.5 1279.67 469.99C1257.18 433.27 1223.67 438.2 1207.96 461.58C1202.71 469.37 1196.44 473.92 1196.18 484.95" fill="#C48270"/>
<path d="M1221.1 567.4C1240.7 629.46 1266.69 717.19 1266.69 717.19C1163.59 722.79 1008.15 785.32 989.22 793.07C957.8 800.07 913.31 825.51 904.76 830.62C896.76 835.17 884.18 847.78 880.38 852.84C876.38 858.12 867.07 877.13 867.07 877.13C869.053 878.11 871.307 878.396 873.472 877.943C875.637 877.49 877.587 876.323 879.01 874.63C882.68 870.63 888.84 860.99 893.78 856.3C889.3 867.55 885.11 879.17 885.11 879.17C885.11 879.17 896.22 881.89 910.46 877.29C917.28 875.09 924.82 862.01 932.8 853.4C940.78 844.79 958.19 848.86 975.62 845.91C993.05 842.96 1005.15 817.4 1005.15 817.4L1004.91 816.98C1050.16 817.73 1288.14 819.28 1339.98 770.84C1370.98 741.91 1330.8 553.5 1279.67 469.99C1257.18 433.27 1223.67 438.2 1207.96 461.58C1202.71 469.37 1196.44 473.92 1196.18 484.95" stroke="#0F0F0F" stroke-width="6" stroke-linecap="round" stroke-linejoin="round"/>
<path d="M894 879.92C893.804 879.951 893.603 879.927 893.42 879.85C893.289 879.802 893.17 879.728 893.069 879.631C892.969 879.534 892.89 879.418 892.837 879.289C892.784 879.16 892.759 879.021 892.763 878.882C892.767 878.743 892.8 878.606 892.86 878.48C894.2 875.3 906.1 847.33 911.34 843.54C920.43 836.96 932.27 828.33 932.27 828.33L933.51 830.03C933.51 830.03 921.66 838.67 912.58 845.24C908.58 848.16 898.37 870.81 894.8 879.24C894.736 879.413 894.629 879.566 894.489 879.685C894.349 879.804 894.18 879.885 894 879.92V879.92Z" stroke="#070707" stroke-width="6" stroke-linecap="round" stroke-linejoin="round"/>
<path d="M905.32 878C905.132 878.029 904.939 878.007 904.762 877.936C904.585 877.865 904.431 877.747 904.315 877.596C904.2 877.444 904.127 877.264 904.105 877.075C904.083 876.886 904.112 876.694 904.19 876.52C904.67 875.52 916.05 850.79 921.37 846.94C930.46 840.37 942.3 831.74 942.3 831.74L943.54 833.44C943.54 833.44 931.69 842.07 922.61 848.65C918.61 851.57 909.32 870.39 906.1 877.4C906.028 877.556 905.92 877.692 905.784 877.796C905.648 877.901 905.489 877.971 905.32 878V878Z" stroke="#070707" stroke-width="6" stroke-linecap="round" stroke-linejoin="round"/>
<path d="M1089.88 359C1089.88 359 1089.67 479.87 1155.14 488.6C1220.61 497.33 1272.45 453.88 1272.45 453.88" fill="#1C0E0C"/>
<path d="M1008.91 338.61L1005.37 367.83L1017.73 375.04" stroke="#070707" stroke-width="6" stroke-linecap="round" stroke-linejoin="round"/>
<path d="M1034.7 339.285C1037.32 338.367 1038.45 334.822 1037.24 331.367C1036.03 327.912 1032.92 325.855 1030.31 326.773C1027.69 327.692 1026.55 331.237 1027.77 334.692C1028.98 338.147 1032.08 340.203 1034.7 339.285Z" fill="#1C0E0C"/>
<path d="M990.455 350.601C993.071 349.683 994.209 346.137 992.996 342.682C991.783 339.227 988.68 337.171 986.064 338.089C983.448 339.007 982.31 342.552 983.523 346.007C984.735 349.462 987.839 351.519 990.455 350.601Z" fill="#1C0E0C"/>
<path d="M1016.73 312.91C1016.73 312.91 1025.37 302.6 1043.99 311.58" stroke="#070707" stroke-width="6" stroke-linecap="round" stroke-linejoin="round"/>
<path d="M971.06 327.33C971.06 327.33 975.93 314.77 993.89 320.11" stroke="#070707" stroke-width="6" stroke-linecap="round" stroke-linejoin="round"/>
<path d="M998.1 245.19C998.1 245.19 1027.03 233.19 1036.68 261.82C1046.33 290.45 1062.05 314.36 1093.76 297.73C1125.47 281.1 1112.49 259.49 1112.49 259.49" fill="#1C0E0C"/>
<path d="M1097.9 337.42C1109.3 337.42 1118.55 328.175 1118.55 316.77C1118.55 305.365 1109.3 296.12 1097.9 296.12C1086.5 296.12 1077.25 305.365 1077.25 316.77C1077.25 328.175 1086.5 337.42 1097.9 337.42Z" fill="#C48270"/>
<path d="M1090.06 329.37C1090.06 329.37 1087.67 321.24 1089.88 313.9C1091.27 309.25 1094.52 304.9 1101.38 303.18" stroke="#070707" stroke-width="6" stroke-linecap="round" stroke-linejoin="round"/>
<path d="M1101.38 319.24L1089.88 313.9" stroke="#070707" stroke-width="6" stroke-linecap="round" stroke-linejoin="round"/>
<path d="M1088.81 294.82C1082.92 240.99 1029.35 210.18 1028.81 209.98L1054.61 211.74C1057.73 212.8 1087.44 216.92 1115.16 288.31L1088.81 294.82Z" fill="#EFAF00" stroke="black" stroke-width="6" stroke-linecap="round" stroke-linejoin="round"/>
<path d="M1109.38 367.716C1122.96 365.904 1131.57 346.439 1128.61 324.241C1125.65 302.043 1112.23 285.516 1098.65 287.329C1085.07 289.141 1076.46 308.605 1079.42 330.804C1082.39 353.002 1095.8 369.528 1109.38 367.716Z" fill="#EFAF00" stroke="black" stroke-width="6" stroke-linecap="round" stroke-linejoin="round"/>
<path d="M1117.95 366.581C1131.53 364.769 1140.14 345.305 1137.18 323.106C1134.22 300.908 1120.81 284.382 1107.23 286.194C1093.64 288.006 1085.04 307.471 1088 329.669C1090.96 351.867 1104.37 368.394 1117.95 366.581Z" fill="#EFAF00" stroke="black" stroke-width="6" stroke-linecap="round" stroke-linejoin="round"/>
<path d="M1017.73 389.85C1017.73 389.85 1037.01 393.17 1045.65 374.11" stroke="#070707" stroke-width="6" stroke-linecap="round" stroke-linejoin="round"/>
</svg>
