<svg width="88" height="130" viewBox="0 0 88 130" fill="none" xmlns="http://www.w3.org/2000/svg">
<path d="M27.0912 28.6623L39.9316 24.9367C44.575 23.5894 49.5634 24.1419 53.7995 26.4726C58.0355 28.8033 61.1722 32.7213 62.5195 37.3647L84.0401 111.536L36.1934 125.418L14.6728 51.2473C13.326 46.6056 13.8776 41.619 16.2063 37.3839C18.535 33.1487 22.4502 30.0116 27.0912 28.6623Z" fill="#FC0303" stroke="white" stroke-width="6" stroke-linecap="round" stroke-linejoin="round"/>
<path d="M22.11 26.7H35.85C40.8149 26.7 45.5764 28.6723 49.087 32.183C52.5977 35.6936 54.57 40.4551 54.57 45.42V126.84H3.39V45.42C3.39 42.9617 3.8742 40.5274 4.81497 38.2562C5.75574 35.9849 7.13464 33.9213 8.87296 32.183C10.6113 30.4447 12.675 29.0657 14.9462 28.125C17.2174 27.1842 19.6517 26.7 22.11 26.7V26.7Z" fill="#0D0D0D" stroke="white" stroke-width="6" stroke-linecap="round" stroke-linejoin="round"/>
<path d="M23 26.7H36.74C41.7049 26.7 46.4664 28.6723 49.977 32.183C53.4877 35.6936 55.46 40.4551 55.46 45.42V126.84H4.25999V45.42C4.25999 42.96 4.74487 40.5241 5.68689 38.2515C6.62891 35.979 8.0096 33.9145 9.75003 32.1759C11.4905 30.4373 13.5565 29.0588 15.83 28.1192C18.1035 27.1796 20.54 26.6974 23 26.7Z" fill="#0D0D0D" stroke="white" stroke-width="6" stroke-linecap="round" stroke-linejoin="round"/>
<path d="M29.85 53.05C32.8986 53.05 35.37 50.5786 35.37 47.53C35.37 44.4814 32.8986 42.01 29.85 42.01C26.8014 42.01 24.33 44.4814 24.33 47.53C24.33 50.5786 26.8014 53.05 29.85 53.05Z" fill="#0D0D0D" stroke="white" stroke-width="6" stroke-linecap="round" stroke-linejoin="round"/>
<path d="M29.85 45.44V3.67" stroke="white" stroke-width="6" stroke-linecap="round" stroke-linejoin="round"/>
<path d="M31.23 99.9C32.4962 99.7089 33.6636 99.1041 34.55 98.18C35.3023 97.3628 35.7168 96.2907 35.71 95.18C35.7425 94.6496 35.6581 94.1186 35.4628 93.6244C35.2676 93.1303 34.9662 92.685 34.58 92.32C33.5899 91.5301 32.4505 90.9485 31.23 90.61L28.53 89.83C26.8894 89.401 25.2951 88.8115 23.77 88.07C22.5094 87.443 21.4366 86.4944 20.66 85.32C19.7149 83.6584 19.3165 81.7416 19.5211 79.841C19.7257 77.9405 20.523 76.1524 21.8 74.73C23.6467 73.049 26.0339 72.0842 28.53 72.01H31.23C32.5699 72.1253 33.8847 72.4422 35.13 72.95C36.2294 73.4249 37.2021 74.1511 37.97 75.07C38.5689 75.7355 39.0644 76.4873 39.44 77.3C39.7646 77.9577 39.9453 78.677 39.97 79.41C39.9729 79.7538 39.9052 80.0945 39.771 80.411C39.6369 80.7275 39.4391 81.0131 39.19 81.25C38.9465 81.5008 38.6538 81.6987 38.3303 81.8311C38.0068 81.9636 37.6595 82.0279 37.31 82.02C36.6622 82.0418 36.0291 81.8245 35.5312 81.4096C35.0333 80.9947 34.7054 80.4111 34.61 79.77C34.4114 78.9342 33.9936 78.1664 33.3994 77.5459C32.8053 76.9254 32.0564 76.4746 31.23 76.24L28.53 76.16C27.5114 76.4238 26.5604 76.901 25.74 77.56C25.1172 78.276 24.7692 79.1901 24.7582 80.139C24.7472 81.0879 25.0739 82.0098 25.68 82.74C26.5228 83.4356 27.4899 83.9649 28.53 84.3L31.23 85.09C32.99 85.57 34.39 86.01 35.43 86.4C36.4626 86.7919 37.4099 87.3793 38.22 88.13C39.0851 88.9004 39.7682 89.8533 40.22 90.92C40.7084 92.0426 40.9537 93.2558 40.94 94.48C40.9485 96.0652 40.5563 97.6268 39.8 99.02C39.0169 100.453 37.8589 101.645 36.45 102.47C34.8496 103.408 33.0512 103.956 31.2 104.07H28.5C26.9937 103.932 25.5223 103.536 24.15 102.9C22.9853 102.363 21.9333 101.61 21.05 100.68C20.2786 99.8758 19.6556 98.9414 19.21 97.92C18.8245 97.0292 18.6205 96.0705 18.61 95.1C18.6143 94.7555 18.6872 94.4153 18.8246 94.0994C18.962 93.7834 19.161 93.4981 19.41 93.26C19.6685 92.9924 19.9798 92.7814 20.324 92.6403C20.6683 92.4991 21.0381 92.4309 21.41 92.44C21.9801 92.4213 22.5422 92.5784 23.02 92.89C23.4599 93.1899 23.7845 93.6308 23.94 94.14C24.2211 95.0487 24.555 95.9402 24.94 96.81C25.2433 97.4569 25.6794 98.0328 26.22 98.5C26.8865 99.0559 27.669 99.4556 28.51 99.67L31.23 99.9Z" fill="white"/>
<path d="M29.8 107.86C29.342 107.857 28.9035 107.674 28.5796 107.35C28.2557 107.027 28.0726 106.588 28.07 106.13V69.3C28.1032 68.8626 28.3004 68.4539 28.6222 68.1557C28.9439 67.8575 29.3663 67.6918 29.805 67.6918C30.2437 67.6918 30.6661 67.8575 30.9878 68.1557C31.3096 68.4539 31.5068 68.8626 31.54 69.3V106.13C31.5374 106.59 31.3529 107.03 31.0268 107.354C30.7008 107.678 30.2598 107.86 29.8 107.86Z" fill="white"/>
</svg>
